<?xml version="1.0" encoding="UTF-8"?>
<svg xmlns="http://www.w3.org/2000/svg" xmlns:xlink="http://www.w3.org/1999/xlink" width="368.498" height="359.9942" viewBox="0 0 368.498 359.9942">
<defs>
<filter id="filter-remove-color-and-invert-alpha" x="0%" y="0%" width="100%" height="100%">
<feColorMatrix color-interpolation-filters="sRGB" values="0 0 0 0 1 0 0 0 0 1 0 0 0 0 1 0 0 0 -1 1"/>
</filter>
<filter id="filter-0" x="0%" y="0%" width="100%" height="100%">
<feImage xlink:href="#compositing-group-1" result="source" x="0" y="0" width="442.1976" height="431.99304"/>
<feImage xlink:href="#compositing-group-2" result="destination" x="0" y="0" width="442.1976" height="431.99304"/>
<feComposite in="source" in2="destination" operator="arithmetic" k1="0" k2="1" k3="1" k4="0" color-interpolation-filters="sRGB"/>
</filter>
<filter id="filter-1" x="0%" y="0%" width="100%" height="100%">
<feImage xlink:href="#compositing-group-4" result="source" x="0" y="0" width="442.1976" height="431.99304"/>
<feImage xlink:href="#compositing-group-5" result="destination" x="0" y="0" width="442.1976" height="431.99304"/>
<feComposite in="source" in2="destination" operator="arithmetic" k1="0" k2="1" k3="1" k4="0" color-interpolation-filters="sRGB"/>
</filter>
<filter id="filter-2" x="0%" y="0%" width="100%" height="100%">
<feImage xlink:href="#compositing-group-7" result="source" x="0" y="0" width="442.1976" height="431.99304"/>
<feImage xlink:href="#compositing-group-8" result="destination" x="0" y="0" width="442.1976" height="431.99304"/>
<feComposite in="source" in2="destination" operator="arithmetic" k1="0" k2="1" k3="1" k4="0" color-interpolation-filters="sRGB"/>
</filter>
<filter id="filter-3" x="0%" y="0%" width="100%" height="100%">
<feImage xlink:href="#compositing-group-10" result="source" x="0" y="0" width="442.1976" height="431.99304"/>
<feImage xlink:href="#compositing-group-11" result="destination" x="0" y="0" width="442.1976" height="431.99304"/>
<feComposite in="source" in2="destination" operator="arithmetic" k1="0" k2="1" k3="1" k4="0" color-interpolation-filters="sRGB"/>
</filter>
<filter id="filter-4" x="0%" y="0%" width="100%" height="100%">
<feImage xlink:href="#compositing-group-13" result="source" x="0" y="0" width="442.1976" height="431.99304"/>
<feImage xlink:href="#compositing-group-14" result="destination" x="0" y="0" width="442.1976" height="431.99304"/>
<feComposite in="source" in2="destination" operator="arithmetic" k1="0" k2="1" k3="1" k4="0" color-interpolation-filters="sRGB"/>
</filter>
<filter id="filter-5" x="0%" y="0%" width="100%" height="100%">
<feImage xlink:href="#compositing-group-16" result="source" x="0" y="0" width="442.1976" height="431.99304"/>
<feImage xlink:href="#compositing-group-17" result="destination" x="0" y="0" width="442.1976" height="431.99304"/>
<feComposite in="source" in2="destination" operator="arithmetic" k1="0" k2="1" k3="1" k4="0" color-interpolation-filters="sRGB"/>
</filter>
<filter id="filter-6" x="0%" y="0%" width="100%" height="100%">
<feImage xlink:href="#compositing-group-19" result="source" x="0" y="0" width="442.1976" height="431.99304"/>
<feImage xlink:href="#compositing-group-20" result="destination" x="0" y="0" width="442.1976" height="431.99304"/>
<feComposite in="source" in2="destination" operator="arithmetic" k1="0" k2="1" k3="1" k4="0" color-interpolation-filters="sRGB"/>
</filter>
<filter id="filter-7" x="0%" y="0%" width="100%" height="100%">
<feImage xlink:href="#compositing-group-22" result="source" x="0" y="0" width="442.1976" height="431.99304"/>
<feImage xlink:href="#compositing-group-23" result="destination" x="0" y="0" width="442.1976" height="431.99304"/>
<feComposite in="source" in2="destination" operator="arithmetic" k1="0" k2="1" k3="1" k4="0" color-interpolation-filters="sRGB"/>
</filter>
<filter id="filter-8" x="0%" y="0%" width="100%" height="100%">
<feImage xlink:href="#compositing-group-25" result="source" x="0" y="0" width="442.1976" height="431.99304"/>
<feImage xlink:href="#compositing-group-26" result="destination" x="0" y="0" width="442.1976" height="431.99304"/>
<feComposite in="source" in2="destination" operator="arithmetic" k1="0" k2="1" k3="1" k4="0" color-interpolation-filters="sRGB"/>
</filter>
<filter id="filter-9" x="0%" y="0%" width="100%" height="100%">
<feImage xlink:href="#compositing-group-28" result="source" x="0" y="0" width="442.1976" height="431.99304"/>
<feImage xlink:href="#compositing-group-29" result="destination" x="0" y="0" width="442.1976" height="431.99304"/>
<feComposite in="source" in2="destination" operator="arithmetic" k1="0" k2="1" k3="1" k4="0" color-interpolation-filters="sRGB"/>
</filter>
<filter id="filter-10" x="0%" y="0%" width="100%" height="100%">
<feImage xlink:href="#compositing-group-31" result="source" x="0" y="0" width="442.1976" height="431.99304"/>
<feImage xlink:href="#compositing-group-32" result="destination" x="0" y="0" width="442.1976" height="431.99304"/>
<feComposite in="source" in2="destination" operator="arithmetic" k1="0" k2="1" k3="1" k4="0" color-interpolation-filters="sRGB"/>
</filter>
<filter id="filter-11" x="0%" y="0%" width="100%" height="100%">
<feImage xlink:href="#compositing-group-34" result="source" x="0" y="0" width="442.1976" height="431.99304"/>
<feImage xlink:href="#compositing-group-35" result="destination" x="0" y="0" width="442.1976" height="431.99304"/>
<feComposite in="source" in2="destination" operator="arithmetic" k1="0" k2="1" k3="1" k4="0" color-interpolation-filters="sRGB"/>
</filter>
<filter id="filter-12" x="0%" y="0%" width="100%" height="100%">
<feImage xlink:href="#compositing-group-37" result="source" x="0" y="0" width="442.1976" height="431.99304"/>
<feImage xlink:href="#compositing-group-38" result="destination" x="0" y="0" width="442.1976" height="431.99304"/>
<feComposite in="source" in2="destination" operator="arithmetic" k1="0" k2="1" k3="1" k4="0" color-interpolation-filters="sRGB"/>
</filter>
<filter id="filter-13" x="0%" y="0%" width="100%" height="100%">
<feImage xlink:href="#compositing-group-40" result="source" x="0" y="0" width="442.1976" height="431.99304"/>
<feImage xlink:href="#compositing-group-41" result="destination" x="0" y="0" width="442.1976" height="431.99304"/>
<feComposite in="source" in2="destination" operator="arithmetic" k1="0" k2="1" k3="1" k4="0" color-interpolation-filters="sRGB"/>
</filter>
<filter id="filter-14" x="0%" y="0%" width="100%" height="100%">
<feImage xlink:href="#compositing-group-43" result="source" x="0" y="0" width="442.1976" height="431.99304"/>
<feImage xlink:href="#compositing-group-44" result="destination" x="0" y="0" width="442.1976" height="431.99304"/>
<feComposite in="source" in2="destination" operator="arithmetic" k1="0" k2="1" k3="1" k4="0" color-interpolation-filters="sRGB"/>
</filter>
<filter id="filter-15" x="0%" y="0%" width="100%" height="100%">
<feImage xlink:href="#compositing-group-46" result="source" x="0" y="0" width="442.1976" height="431.99304"/>
<feImage xlink:href="#compositing-group-47" result="destination" x="0" y="0" width="442.1976" height="431.99304"/>
<feComposite in="source" in2="destination" operator="arithmetic" k1="0" k2="1" k3="1" k4="0" color-interpolation-filters="sRGB"/>
</filter>
<filter id="filter-16" x="0%" y="0%" width="100%" height="100%">
<feImage xlink:href="#compositing-group-49" result="source" x="0" y="0" width="442.1976" height="431.99304"/>
<feImage xlink:href="#compositing-group-50" result="destination" x="0" y="0" width="442.1976" height="431.99304"/>
<feComposite in="source" in2="destination" operator="arithmetic" k1="0" k2="1" k3="1" k4="0" color-interpolation-filters="sRGB"/>
</filter>
<filter id="filter-17" x="0%" y="0%" width="100%" height="100%">
<feImage xlink:href="#compositing-group-52" result="source" x="0" y="0" width="442.1976" height="431.99304"/>
<feImage xlink:href="#compositing-group-53" result="destination" x="0" y="0" width="442.1976" height="431.99304"/>
<feComposite in="source" in2="destination" operator="arithmetic" k1="0" k2="1" k3="1" k4="0" color-interpolation-filters="sRGB"/>
</filter>
<filter id="filter-18" x="0%" y="0%" width="100%" height="100%">
<feImage xlink:href="#compositing-group-55" result="source" x="0" y="0" width="442.1976" height="431.99304"/>
<feImage xlink:href="#compositing-group-56" result="destination" x="0" y="0" width="442.1976" height="431.99304"/>
<feComposite in="source" in2="destination" operator="arithmetic" k1="0" k2="1" k3="1" k4="0" color-interpolation-filters="sRGB"/>
</filter>
<filter id="filter-19" x="0%" y="0%" width="100%" height="100%">
<feImage xlink:href="#compositing-group-58" result="source" x="0" y="0" width="442.1976" height="431.99304"/>
<feImage xlink:href="#compositing-group-59" result="destination" x="0" y="0" width="442.1976" height="431.99304"/>
<feComposite in="source" in2="destination" operator="arithmetic" k1="0" k2="1" k3="1" k4="0" color-interpolation-filters="sRGB"/>
</filter>
<filter id="filter-20" x="0%" y="0%" width="100%" height="100%">
<feImage xlink:href="#compositing-group-61" result="source" x="0" y="0" width="442.1976" height="431.99304"/>
<feImage xlink:href="#compositing-group-62" result="destination" x="0" y="0" width="442.1976" height="431.99304"/>
<feComposite in="source" in2="destination" operator="arithmetic" k1="0" k2="1" k3="1" k4="0" color-interpolation-filters="sRGB"/>
</filter>
<filter id="filter-21" x="0%" y="0%" width="100%" height="100%">
<feImage xlink:href="#compositing-group-64" result="source" x="0" y="0" width="442.1976" height="431.99304"/>
<feImage xlink:href="#compositing-group-65" result="destination" x="0" y="0" width="442.1976" height="431.99304"/>
<feComposite in="source" in2="destination" operator="arithmetic" k1="0" k2="1" k3="1" k4="0" color-interpolation-filters="sRGB"/>
</filter>
<filter id="filter-22" x="0%" y="0%" width="100%" height="100%">
<feImage xlink:href="#compositing-group-67" result="source" x="0" y="0" width="442.1976" height="431.99304"/>
<feImage xlink:href="#compositing-group-68" result="destination" x="0" y="0" width="442.1976" height="431.99304"/>
<feComposite in="source" in2="destination" operator="arithmetic" k1="0" k2="1" k3="1" k4="0" color-interpolation-filters="sRGB"/>
</filter>
<g>
<g id="glyph-0-0">
<path d="M 3.296875 -5.25 C 4.179688 -5.25 4.882812 -5.03125 5.40625 -4.59375 C 5.925781 -4.15625 6.1875 -3.535156 6.1875 -2.734375 C 6.1875 -1.847656 5.898438 -1.148438 5.328125 -0.640625 C 4.765625 -0.128906 3.976562 0.125 2.96875 0.125 C 2.53125 0.125 2.117188 0.0820312 1.734375 0 C 1.347656 -0.0820312 1.019531 -0.195312 0.75 -0.34375 L 0.75 -1.34375 C 1.039062 -1.164062 1.390625 -1.023438 1.796875 -0.921875 C 2.210938 -0.828125 2.609375 -0.78125 2.984375 -0.78125 C 3.617188 -0.78125 4.128906 -0.929688 4.515625 -1.234375 C 4.898438 -1.535156 5.09375 -2 5.09375 -2.625 C 5.09375 -3.1875 4.921875 -3.617188 4.578125 -3.921875 C 4.234375 -4.222656 3.691406 -4.375 2.953125 -4.375 C 2.722656 -4.375 2.460938 -4.351562 2.171875 -4.3125 C 1.890625 -4.269531 1.660156 -4.226562 1.484375 -4.1875 L 0.953125 -4.53125 L 1.28125 -8.5625 L 5.578125 -8.5625 L 5.578125 -7.609375 L 2.1875 -7.609375 L 1.984375 -5.125 C 2.117188 -5.144531 2.300781 -5.171875 2.53125 -5.203125 C 2.757812 -5.234375 3.015625 -5.25 3.296875 -5.25 Z M 3.296875 -5.25 "/>
</g>
<g id="glyph-0-1">
<path d="M 6.625 -1.9375 L 5.375 -1.9375 L 5.375 0 L 4.359375 0 L 4.359375 -1.9375 L 0.25 -1.9375 L 0.25 -2.84375 L 4.28125 -8.609375 L 5.375 -8.609375 L 5.375 -2.890625 L 6.625 -2.890625 Z M 4.359375 -5.59375 C 4.359375 -6.007812 4.363281 -6.363281 4.375 -6.65625 C 4.394531 -6.945312 4.410156 -7.222656 4.421875 -7.484375 L 4.375 -7.484375 C 4.300781 -7.335938 4.21875 -7.175781 4.125 -7 C 4.03125 -6.820312 3.941406 -6.671875 3.859375 -6.546875 L 1.28125 -2.890625 L 4.359375 -2.890625 Z M 4.359375 -5.59375 "/>
</g>
<g id="glyph-0-2">
<path d="M 3.421875 -8.6875 C 4.171875 -8.6875 4.785156 -8.507812 5.265625 -8.15625 C 5.742188 -7.800781 5.984375 -7.296875 5.984375 -6.640625 C 5.984375 -6.296875 5.910156 -5.992188 5.765625 -5.734375 C 5.617188 -5.484375 5.421875 -5.257812 5.171875 -5.0625 C 4.921875 -4.863281 4.648438 -4.6875 4.359375 -4.53125 C 4.710938 -4.363281 5.03125 -4.171875 5.3125 -3.953125 C 5.601562 -3.742188 5.832031 -3.5 6 -3.21875 C 6.175781 -2.945312 6.265625 -2.613281 6.265625 -2.21875 C 6.265625 -1.5 6.007812 -0.925781 5.5 -0.5 C 4.988281 -0.0820312 4.304688 0.125 3.453125 0.125 C 2.535156 0.125 1.828125 -0.078125 1.328125 -0.484375 C 0.835938 -0.890625 0.59375 -1.457031 0.59375 -2.1875 C 0.59375 -2.570312 0.671875 -2.910156 0.828125 -3.203125 C 0.992188 -3.492188 1.210938 -3.742188 1.484375 -3.953125 C 1.753906 -4.160156 2.046875 -4.332031 2.359375 -4.46875 C 1.941406 -4.71875 1.585938 -5.007812 1.296875 -5.34375 C 1.003906 -5.6875 0.859375 -6.117188 0.859375 -6.640625 C 0.859375 -7.085938 0.96875 -7.457031 1.1875 -7.75 C 1.414062 -8.050781 1.722656 -8.28125 2.109375 -8.4375 C 2.492188 -8.601562 2.929688 -8.6875 3.421875 -8.6875 Z M 3.40625 -7.84375 C 2.96875 -7.84375 2.601562 -7.734375 2.3125 -7.515625 C 2.03125 -7.304688 1.890625 -7 1.890625 -6.59375 C 1.890625 -6.300781 1.957031 -6.054688 2.09375 -5.859375 C 2.238281 -5.660156 2.429688 -5.488281 2.671875 -5.34375 C 2.910156 -5.207031 3.175781 -5.070312 3.46875 -4.9375 C 3.882812 -5.113281 4.234375 -5.328125 4.515625 -5.578125 C 4.796875 -5.828125 4.9375 -6.164062 4.9375 -6.59375 C 4.9375 -7 4.796875 -7.304688 4.515625 -7.515625 C 4.242188 -7.734375 3.875 -7.84375 3.40625 -7.84375 Z M 1.625 -2.171875 C 1.625 -1.753906 1.769531 -1.40625 2.0625 -1.125 C 2.363281 -0.851562 2.820312 -0.71875 3.4375 -0.71875 C 4.019531 -0.71875 4.460938 -0.851562 4.765625 -1.125 C 5.078125 -1.40625 5.234375 -1.765625 5.234375 -2.203125 C 5.234375 -2.617188 5.066406 -2.960938 4.734375 -3.234375 C 4.410156 -3.515625 3.976562 -3.757812 3.4375 -3.96875 L 3.234375 -4.046875 C 2.710938 -3.816406 2.3125 -3.554688 2.03125 -3.265625 C 1.757812 -2.972656 1.625 -2.609375 1.625 -2.171875 Z M 1.625 -2.171875 "/>
</g>
<g id="glyph-0-3">
<path d="M 6.234375 -4.90625 C 6.234375 -4.289062 6.179688 -3.6875 6.078125 -3.09375 C 5.972656 -2.5 5.773438 -1.957031 5.484375 -1.46875 C 5.203125 -0.988281 4.800781 -0.601562 4.28125 -0.3125 C 3.769531 -0.0195312 3.109375 0.125 2.296875 0.125 C 2.140625 0.125 1.953125 0.113281 1.734375 0.09375 C 1.523438 0.0703125 1.351562 0.0390625 1.21875 0 L 1.21875 -0.90625 C 1.53125 -0.800781 1.882812 -0.75 2.28125 -0.75 C 2.84375 -0.75 3.304688 -0.835938 3.671875 -1.015625 C 4.035156 -1.203125 4.320312 -1.453125 4.53125 -1.765625 C 4.75 -2.085938 4.90625 -2.457031 5 -2.875 C 5.09375 -3.289062 5.148438 -3.734375 5.171875 -4.203125 L 5.09375 -4.203125 C 4.925781 -3.929688 4.675781 -3.695312 4.34375 -3.5 C 4.007812 -3.300781 3.582031 -3.203125 3.0625 -3.203125 C 2.320312 -3.203125 1.722656 -3.425781 1.265625 -3.875 C 0.816406 -4.332031 0.59375 -4.972656 0.59375 -5.796875 C 0.59375 -6.398438 0.707031 -6.914062 0.9375 -7.34375 C 1.164062 -7.769531 1.484375 -8.097656 1.890625 -8.328125 C 2.304688 -8.566406 2.789062 -8.6875 3.34375 -8.6875 C 3.882812 -8.6875 4.375 -8.546875 4.8125 -8.265625 C 5.25 -7.992188 5.59375 -7.578125 5.84375 -7.015625 C 6.101562 -6.460938 6.234375 -5.757812 6.234375 -4.90625 Z M 3.34375 -7.796875 C 2.84375 -7.796875 2.429688 -7.628906 2.109375 -7.296875 C 1.796875 -6.972656 1.640625 -6.476562 1.640625 -5.8125 C 1.640625 -5.257812 1.773438 -4.820312 2.046875 -4.5 C 2.316406 -4.1875 2.726562 -4.03125 3.28125 -4.03125 C 3.664062 -4.03125 4 -4.109375 4.28125 -4.265625 C 4.5625 -4.421875 4.78125 -4.617188 4.9375 -4.859375 C 5.09375 -5.097656 5.171875 -5.347656 5.171875 -5.609375 C 5.171875 -5.953125 5.101562 -6.289062 4.96875 -6.625 C 4.832031 -6.957031 4.628906 -7.234375 4.359375 -7.453125 C 4.085938 -7.679688 3.75 -7.796875 3.34375 -7.796875 Z M 3.34375 -7.796875 "/>
</g>
<g id="glyph-0-4">
<path d="M 4.265625 0 L 3.234375 0 L 3.234375 -5.984375 C 3.234375 -6.328125 3.234375 -6.601562 3.234375 -6.8125 C 3.242188 -7.019531 3.257812 -7.238281 3.28125 -7.46875 C 3.144531 -7.332031 3.023438 -7.222656 2.921875 -7.140625 C 2.816406 -7.054688 2.6875 -6.941406 2.53125 -6.796875 L 1.625 -6.0625 L 1.0625 -6.765625 L 3.390625 -8.5625 L 4.265625 -8.5625 Z M 4.265625 0 "/>
</g>
<g id="glyph-0-5">
<path d="M 6.234375 0 L 0.578125 0 L 0.578125 -0.875 L 2.8125 -3.140625 C 3.25 -3.578125 3.613281 -3.960938 3.90625 -4.296875 C 4.207031 -4.628906 4.429688 -4.957031 4.578125 -5.28125 C 4.734375 -5.601562 4.8125 -5.957031 4.8125 -6.34375 C 4.8125 -6.820312 4.671875 -7.179688 4.390625 -7.421875 C 4.109375 -7.660156 3.742188 -7.78125 3.296875 -7.78125 C 2.878906 -7.78125 2.515625 -7.707031 2.203125 -7.5625 C 1.890625 -7.425781 1.566406 -7.226562 1.234375 -6.96875 L 0.671875 -7.6875 C 1.003906 -7.957031 1.390625 -8.191406 1.828125 -8.390625 C 2.265625 -8.585938 2.753906 -8.6875 3.296875 -8.6875 C 4.097656 -8.6875 4.726562 -8.484375 5.1875 -8.078125 C 5.65625 -7.671875 5.890625 -7.113281 5.890625 -6.40625 C 5.890625 -5.957031 5.796875 -5.535156 5.609375 -5.140625 C 5.429688 -4.753906 5.175781 -4.367188 4.84375 -3.984375 C 4.519531 -3.609375 4.140625 -3.203125 3.703125 -2.765625 L 1.90625 -1.015625 L 1.90625 -0.953125 L 6.234375 -0.953125 Z M 6.234375 0 "/>
</g>
<g id="glyph-0-6">
<path d="M 5.921875 -6.5625 C 5.921875 -5.988281 5.757812 -5.53125 5.4375 -5.1875 C 5.113281 -4.851562 4.679688 -4.628906 4.140625 -4.515625 L 4.140625 -4.46875 C 4.828125 -4.382812 5.335938 -4.164062 5.671875 -3.8125 C 6.015625 -3.457031 6.1875 -3 6.1875 -2.4375 C 6.1875 -1.9375 6.066406 -1.492188 5.828125 -1.109375 C 5.597656 -0.722656 5.238281 -0.421875 4.75 -0.203125 C 4.269531 0.015625 3.648438 0.125 2.890625 0.125 C 2.441406 0.125 2.023438 0.0859375 1.640625 0.015625 C 1.253906 -0.046875 0.890625 -0.164062 0.546875 -0.34375 L 0.546875 -1.328125 C 0.898438 -1.148438 1.285156 -1.007812 1.703125 -0.90625 C 2.117188 -0.8125 2.519531 -0.765625 2.90625 -0.765625 C 3.675781 -0.765625 4.226562 -0.914062 4.5625 -1.21875 C 4.90625 -1.519531 5.078125 -1.929688 5.078125 -2.453125 C 5.078125 -2.992188 4.863281 -3.378906 4.4375 -3.609375 C 4.019531 -3.847656 3.429688 -3.96875 2.671875 -3.96875 L 1.84375 -3.96875 L 1.84375 -4.875 L 2.6875 -4.875 C 3.394531 -4.875 3.929688 -5.019531 4.296875 -5.3125 C 4.660156 -5.613281 4.84375 -6.003906 4.84375 -6.484375 C 4.84375 -6.898438 4.703125 -7.222656 4.421875 -7.453125 C 4.140625 -7.679688 3.757812 -7.796875 3.28125 -7.796875 C 2.8125 -7.796875 2.410156 -7.726562 2.078125 -7.59375 C 1.753906 -7.457031 1.429688 -7.285156 1.109375 -7.078125 L 0.59375 -7.796875 C 0.894531 -8.035156 1.269531 -8.242188 1.71875 -8.421875 C 2.175781 -8.597656 2.691406 -8.6875 3.265625 -8.6875 C 4.160156 -8.6875 4.828125 -8.484375 5.265625 -8.078125 C 5.703125 -7.679688 5.921875 -7.175781 5.921875 -6.5625 Z M 5.921875 -6.5625 "/>
</g>
</g>
<g id="compositing-group-0" transform="translate(36.8498, 35.99942)">
<rect x="-36.8498" y="-35.99942" width="442.1976" height="431.99304" fill="rgb(0%, 0%, 0%)" fill-opacity="0"/>
<path fill="none" stroke-width="1.41" stroke-linecap="round" stroke-linejoin="round" stroke="rgb(100%, 100%, 100%)" stroke-opacity="1" stroke-miterlimit="10" d="M 223.40625 36.988281 L 223.335938 38.835938 L 223.125 40.675781 L 222.773438 42.492188 L 222.285156 44.28125 L 221.664062 46.03125 L 220.90625 47.730469 L 220.023438 49.371094 L 219.015625 50.945312 L 217.890625 52.445312 L 216.652344 53.855469 L 215.308594 55.175781 L 213.867188 56.394531 L 212.335938 57.507812 L 210.722656 58.503906 L 209.03125 59.378906 L 207.28125 60.128906 L 205.472656 60.75 L 203.625 61.238281 L 201.742188 61.585938 L 199.835938 61.796875 L 197.921875 61.867188 L 196.003906 61.796875 L 194.101562 61.585938 L 192.21875 61.238281 L 190.367188 60.75 L 188.5625 60.128906 L 186.808594 59.378906 L 185.121094 58.503906 L 183.507812 57.507812 L 181.972656 56.394531 L 180.53125 55.175781 L 179.1875 53.855469 L 177.949219 52.445312 L 176.824219 50.945312 L 175.820312 49.371094 L 174.933594 47.730469 L 174.179688 46.03125 L 173.558594 44.28125 L 173.070312 42.492188 L 172.71875 40.675781 L 172.507812 38.835938 L 172.4375 36.988281 L 172.507812 35.140625 L 172.71875 33.300781 L 173.070312 31.480469 L 173.558594 29.691406 L 174.179688 27.945312 L 174.933594 26.242188 L 175.820312 24.601562 L 176.824219 23.027344 L 177.949219 21.53125 L 179.1875 20.117188 L 180.53125 18.800781 L 181.972656 17.578125 L 183.507812 16.46875 L 185.121094 15.472656 L 186.808594 14.597656 L 188.5625 13.84375 L 190.367188 13.222656 L 192.21875 12.738281 L 194.101562 12.386719 L 196.003906 12.175781 L 197.921875 12.105469 L 199.835938 12.175781 L 201.742188 12.386719 L 203.625 12.738281 L 205.472656 13.222656 L 207.28125 13.84375 L 209.03125 14.597656 L 210.722656 15.472656 L 212.335938 16.46875 L 213.867188 17.578125 L 215.308594 18.800781 L 216.652344 20.117188 L 217.890625 21.53125 L 219.015625 23.027344 L 220.023438 24.601562 L 220.90625 26.242188 L 221.664062 27.945312 L 222.285156 29.691406 L 222.773438 31.480469 L 223.125 33.300781 L 223.335938 35.140625 L 223.40625 36.988281 "/>
</g>
<mask id="mask-0">
<use xlink:href="#compositing-group-0"/>
</mask>
<mask id="mask-1">
<use xlink:href="#compositing-group-0" filter="url(#filter-remove-color-and-invert-alpha)"/>
</mask>
<g id="compositing-group-1" mask="url(#mask-0)">
<g transform="translate(36.8498, 35.99942)">
<rect x="-36.8498" y="-35.99942" width="442.1976" height="431.99304" fill="rgb(0%, 0%, 0%)" fill-opacity="1"/>
</g>
</g>
<g id="compositing-group-2" mask="url(#mask-1)">
<g transform="translate(36.8498, 35.99942)">
<rect x="-36.8498" y="-35.99942" width="442.1976" height="431.99304" fill="rgb(100%, 100%, 100%)" fill-opacity="1"/>
</g>
</g>
<g id="compositing-group-3" transform="translate(36.8498, 35.99942)">
<rect x="-36.8498" y="-35.99942" width="442.1976" height="431.99304" fill="rgb(0%, 0%, 0%)" fill-opacity="0"/>
<path fill="none" stroke-width="1.41" stroke-linecap="round" stroke-linejoin="round" stroke="rgb(100%, 100%, 100%)" stroke-opacity="1" stroke-miterlimit="10" d="M 141.34375 111.582031 L 141.273438 113.429688 L 141.0625 115.269531 L 140.710938 117.085938 L 140.222656 118.875 L 139.597656 120.625 L 138.84375 122.324219 L 137.960938 123.96875 L 136.953125 125.542969 L 135.828125 127.039062 L 134.589844 128.453125 L 133.246094 129.769531 L 131.804688 130.988281 L 130.273438 132.101562 L 128.65625 133.097656 L 126.96875 133.972656 L 125.21875 134.726562 L 123.410156 135.34375 L 121.5625 135.832031 L 119.679688 136.183594 L 117.773438 136.394531 L 115.859375 136.464844 L 113.941406 136.394531 L 112.039062 136.183594 L 110.15625 135.832031 L 108.304688 135.34375 L 106.5 134.726562 L 104.746094 133.972656 L 103.058594 133.097656 L 101.445312 132.101562 L 99.910156 130.988281 L 98.46875 129.769531 L 97.125 128.453125 L 95.886719 127.039062 L 94.761719 125.542969 L 93.757812 123.96875 L 92.871094 122.324219 L 92.117188 120.625 L 91.492188 118.875 L 91.007812 117.085938 L 90.65625 115.269531 L 90.445312 113.429688 L 90.375 111.582031 L 90.445312 109.734375 L 90.65625 107.894531 L 91.007812 106.078125 L 91.492188 104.289062 L 92.117188 102.539062 L 92.871094 100.839844 L 93.757812 99.199219 L 94.761719 97.625 L 95.886719 96.125 L 97.125 94.714844 L 98.46875 93.394531 L 99.910156 92.175781 L 101.445312 91.0625 L 103.058594 90.066406 L 104.746094 89.191406 L 106.5 88.441406 L 108.304688 87.820312 L 110.15625 87.332031 L 112.039062 86.984375 L 113.941406 86.773438 L 115.859375 86.703125 L 117.773438 86.773438 L 119.679688 86.984375 L 121.5625 87.332031 L 123.410156 87.820312 L 125.21875 88.441406 L 126.96875 89.191406 L 128.65625 90.066406 L 130.273438 91.0625 L 131.804688 92.175781 L 133.246094 93.394531 L 134.589844 94.714844 L 135.828125 96.125 L 136.953125 97.625 L 137.960938 99.199219 L 138.84375 100.839844 L 139.597656 102.539062 L 140.222656 104.289062 L 140.710938 106.078125 L 141.0625 107.894531 L 141.273438 109.734375 L 141.34375 111.582031 "/>
</g>
<mask id="mask-2">
<use xlink:href="#compositing-group-3"/>
</mask>
<mask id="mask-3">
<use xlink:href="#compositing-group-3" filter="url(#filter-remove-color-and-invert-alpha)"/>
</mask>
<g id="compositing-group-4" mask="url(#mask-2)">
<g transform="translate(36.8498, 35.99942)">
<rect x="-36.8498" y="-35.99942" width="442.1976" height="431.99304" fill="rgb(0%, 0%, 0%)" fill-opacity="1"/>
</g>
</g>
<g id="compositing-group-5" mask="url(#mask-3)">
<g transform="translate(36.8498, 35.99942)">
<g filter="url(#filter-0)" transform="translate(-36.8498, -35.99942)">
<rect x="0" y="0" width="442.1976" height="431.99304" fill="rgb(0%, 0%, 0%)" fill-opacity="1"/>
</g>
</g>
</g>
<g id="compositing-group-6" transform="translate(36.8498, 35.99942)">
<rect x="-36.8498" y="-35.99942" width="442.1976" height="431.99304" fill="rgb(0%, 0%, 0%)" fill-opacity="0"/>
<path fill="none" stroke-width="1.41" stroke-linecap="round" stroke-linejoin="round" stroke="rgb(100%, 100%, 100%)" stroke-opacity="1" stroke-miterlimit="10" d="M 301.511719 111.417969 L 301.441406 113.265625 L 301.230469 115.105469 L 300.878906 116.921875 L 300.390625 118.710938 L 299.769531 120.460938 L 299.011719 122.160156 L 298.128906 123.804688 L 297.121094 125.375 L 295.996094 126.875 L 294.757812 128.285156 L 293.417969 129.605469 L 291.972656 130.824219 L 290.441406 131.9375 L 288.828125 132.933594 L 287.136719 133.808594 L 285.386719 134.558594 L 283.578125 135.179688 L 281.730469 135.667969 L 279.847656 136.019531 L 277.941406 136.230469 L 276.027344 136.300781 L 274.109375 136.230469 L 272.207031 136.019531 L 270.324219 135.667969 L 268.472656 135.179688 L 266.667969 134.558594 L 264.914062 133.808594 L 263.226562 132.933594 L 261.613281 131.9375 L 260.078125 130.824219 L 258.636719 129.605469 L 257.292969 128.285156 L 256.054688 126.875 L 254.929688 125.375 L 253.925781 123.804688 L 253.039062 122.160156 L 252.285156 120.460938 L 251.664062 118.710938 L 251.175781 116.921875 L 250.824219 115.105469 L 250.613281 113.265625 L 250.542969 111.417969 L 250.613281 109.570312 L 250.824219 107.730469 L 251.175781 105.914062 L 251.664062 104.125 L 252.285156 102.375 L 253.039062 100.675781 L 253.925781 99.03125 L 254.929688 97.457031 L 256.054688 95.960938 L 257.292969 94.546875 L 258.636719 93.230469 L 260.078125 92.011719 L 261.613281 90.898438 L 263.226562 89.902344 L 264.914062 89.027344 L 266.667969 88.273438 L 268.472656 87.65625 L 270.324219 87.167969 L 272.207031 86.816406 L 274.109375 86.605469 L 276.027344 86.535156 L 277.941406 86.605469 L 279.847656 86.816406 L 281.730469 87.167969 L 283.578125 87.65625 L 285.386719 88.273438 L 287.136719 89.027344 L 288.828125 89.902344 L 290.441406 90.898438 L 291.972656 92.011719 L 293.417969 93.230469 L 294.757812 94.546875 L 295.996094 95.960938 L 297.121094 97.457031 L 298.128906 99.03125 L 299.011719 100.675781 L 299.769531 102.375 L 300.390625 104.125 L 300.878906 105.914062 L 301.230469 107.730469 L 301.441406 109.570312 L 301.511719 111.417969 "/>
</g>
<mask id="mask-4">
<use xlink:href="#compositing-group-6"/>
</mask>
<mask id="mask-5">
<use xlink:href="#compositing-group-6" filter="url(#filter-remove-color-and-invert-alpha)"/>
</mask>
<g id="compositing-group-7" mask="url(#mask-4)">
<g transform="translate(36.8498, 35.99942)">
<rect x="-36.8498" y="-35.99942" width="442.1976" height="431.99304" fill="rgb(0%, 0%, 0%)" fill-opacity="1"/>
</g>
</g>
<g id="compositing-group-8" mask="url(#mask-5)">
<g transform="translate(36.8498, 35.99942)">
<g filter="url(#filter-1)" transform="translate(-36.8498, -35.99942)">
<rect x="0" y="0" width="442.1976" height="431.99304" fill="rgb(0%, 0%, 0%)" fill-opacity="1"/>
</g>
</g>
</g>
<g id="compositing-group-9" transform="translate(36.8498, 35.99942)">
<rect x="-36.8498" y="-35.99942" width="442.1976" height="431.99304" fill="rgb(0%, 0%, 0%)" fill-opacity="0"/>
<path fill="none" stroke-width="1.41" stroke-linecap="round" stroke-linejoin="round" stroke="rgb(100%, 100%, 100%)" stroke-opacity="1" stroke-miterlimit="10" d="M 64.382812 184.824219 L 64.3125 186.671875 L 64.101562 188.511719 L 63.753906 190.328125 L 63.265625 192.117188 L 62.640625 193.867188 L 61.886719 195.566406 L 61.003906 197.207031 L 59.996094 198.78125 L 58.871094 200.28125 L 57.632812 201.691406 L 56.289062 203.011719 L 54.847656 204.230469 L 53.316406 205.34375 L 51.699219 206.339844 L 50.011719 207.214844 L 48.261719 207.964844 L 46.453125 208.585938 L 44.605469 209.074219 L 42.722656 209.421875 L 40.816406 209.632812 L 38.902344 209.703125 L 36.984375 209.632812 L 35.082031 209.421875 L 33.199219 209.074219 L 31.347656 208.585938 L 29.542969 207.964844 L 27.789062 207.214844 L 26.101562 206.339844 L 24.484375 205.34375 L 22.953125 204.230469 L 21.511719 203.011719 L 20.167969 201.691406 L 18.929688 200.28125 L 17.804688 198.78125 L 16.796875 197.207031 L 15.914062 195.566406 L 15.160156 193.867188 L 14.535156 192.117188 L 14.046875 190.328125 L 13.699219 188.511719 L 13.488281 186.671875 L 13.417969 184.824219 L 13.488281 182.976562 L 13.699219 181.136719 L 14.046875 179.316406 L 14.535156 177.527344 L 15.160156 175.78125 L 15.914062 174.078125 L 16.796875 172.4375 L 17.804688 170.863281 L 18.929688 169.367188 L 20.167969 167.953125 L 21.511719 166.636719 L 22.953125 165.414062 L 24.484375 164.304688 L 26.101562 163.308594 L 27.789062 162.433594 L 29.542969 161.679688 L 31.347656 161.058594 L 33.199219 160.574219 L 35.082031 160.222656 L 36.984375 160.011719 L 38.902344 159.941406 L 40.816406 160.011719 L 42.722656 160.222656 L 44.605469 160.574219 L 46.453125 161.058594 L 48.261719 161.679688 L 50.011719 162.433594 L 51.699219 163.308594 L 53.316406 164.304688 L 54.847656 165.414062 L 56.289062 166.636719 L 57.632812 167.953125 L 58.871094 169.367188 L 59.996094 170.863281 L 61.003906 172.4375 L 61.886719 174.078125 L 62.640625 175.78125 L 63.265625 177.527344 L 63.753906 179.316406 L 64.101562 181.136719 L 64.3125 182.976562 L 64.382812 184.824219 "/>
</g>
<mask id="mask-6">
<use xlink:href="#compositing-group-9"/>
</mask>
<mask id="mask-7">
<use xlink:href="#compositing-group-9" filter="url(#filter-remove-color-and-invert-alpha)"/>
</mask>
<g id="compositing-group-10" mask="url(#mask-6)">
<g transform="translate(36.8498, 35.99942)">
<rect x="-36.8498" y="-35.99942" width="442.1976" height="431.99304" fill="rgb(0%, 0%, 0%)" fill-opacity="1"/>
</g>
</g>
<g id="compositing-group-11" mask="url(#mask-7)">
<g transform="translate(36.8498, 35.99942)">
<g filter="url(#filter-2)" transform="translate(-36.8498, -35.99942)">
<rect x="0" y="0" width="442.1976" height="431.99304" fill="rgb(0%, 0%, 0%)" fill-opacity="1"/>
</g>
</g>
</g>
<g id="compositing-group-12" transform="translate(36.8498, 35.99942)">
<rect x="-36.8498" y="-35.99942" width="442.1976" height="431.99304" fill="rgb(0%, 0%, 0%)" fill-opacity="0"/>
<path fill="none" stroke-width="1.41" stroke-linecap="round" stroke-linejoin="round" stroke="rgb(100%, 100%, 100%)" stroke-opacity="1" stroke-miterlimit="10" d="M 141.917969 232.09375 L 141.847656 233.941406 L 141.636719 235.777344 L 141.285156 237.597656 L 140.796875 239.386719 L 140.171875 241.136719 L 139.417969 242.835938 L 138.535156 244.476562 L 137.527344 246.050781 L 136.402344 247.546875 L 135.164062 248.960938 L 133.820312 250.28125 L 132.378906 251.5 L 130.847656 252.609375 L 129.230469 253.605469 L 127.542969 254.484375 L 125.792969 255.234375 L 123.984375 255.855469 L 122.136719 256.34375 L 120.253906 256.691406 L 118.347656 256.902344 L 116.433594 256.972656 L 114.515625 256.902344 L 112.613281 256.691406 L 110.730469 256.34375 L 108.878906 255.855469 L 107.074219 255.234375 L 105.320312 254.484375 L 103.632812 253.605469 L 102.019531 252.609375 L 100.484375 251.5 L 99.042969 250.28125 L 97.699219 248.960938 L 96.460938 247.546875 L 95.335938 246.050781 L 94.328125 244.476562 L 93.445312 242.835938 L 92.691406 241.136719 L 92.066406 239.386719 L 91.578125 237.597656 L 91.230469 235.777344 L 91.019531 233.941406 L 90.949219 232.09375 L 91.019531 230.242188 L 91.230469 228.40625 L 91.578125 226.585938 L 92.066406 224.796875 L 92.691406 223.046875 L 93.445312 221.347656 L 94.328125 219.707031 L 95.335938 218.132812 L 96.460938 216.636719 L 97.699219 215.222656 L 99.042969 213.902344 L 100.484375 212.683594 L 102.019531 211.574219 L 103.632812 210.578125 L 105.320312 209.699219 L 107.074219 208.949219 L 108.878906 208.328125 L 110.730469 207.839844 L 112.613281 207.492188 L 114.515625 207.28125 L 116.433594 207.210938 L 118.347656 207.28125 L 120.253906 207.492188 L 122.136719 207.839844 L 123.984375 208.328125 L 125.792969 208.949219 L 127.542969 209.699219 L 129.230469 210.578125 L 130.847656 211.574219 L 132.378906 212.683594 L 133.820312 213.902344 L 135.164062 215.222656 L 136.402344 216.636719 L 137.527344 218.132812 L 138.535156 219.707031 L 139.417969 221.347656 L 140.171875 223.046875 L 140.796875 224.796875 L 141.285156 226.585938 L 141.636719 228.40625 L 141.847656 230.242188 L 141.917969 232.09375 "/>
</g>
<mask id="mask-8">
<use xlink:href="#compositing-group-12"/>
</mask>
<mask id="mask-9">
<use xlink:href="#compositing-group-12" filter="url(#filter-remove-color-and-invert-alpha)"/>
</mask>
<g id="compositing-group-13" mask="url(#mask-8)">
<g transform="translate(36.8498, 35.99942)">
<rect x="-36.8498" y="-35.99942" width="442.1976" height="431.99304" fill="rgb(0%, 0%, 0%)" fill-opacity="1"/>
</g>
</g>
<g id="compositing-group-14" mask="url(#mask-9)">
<g transform="translate(36.8498, 35.99942)">
<g filter="url(#filter-3)" transform="translate(-36.8498, -35.99942)">
<rect x="0" y="0" width="442.1976" height="431.99304" fill="rgb(0%, 0%, 0%)" fill-opacity="1"/>
</g>
</g>
</g>
<g id="compositing-group-15" transform="translate(36.8498, 35.99942)">
<rect x="-36.8498" y="-35.99942" width="442.1976" height="431.99304" fill="rgb(0%, 0%, 0%)" fill-opacity="0"/>
<path fill="none" stroke-width="1.41" stroke-linecap="round" stroke-linejoin="round" stroke="rgb(100%, 100%, 100%)" stroke-opacity="1" stroke-miterlimit="10" d="M 246.554688 184.320312 L 246.484375 186.167969 L 246.273438 188.007812 L 245.921875 189.824219 L 245.433594 191.613281 L 244.8125 193.363281 L 244.054688 195.0625 L 243.171875 196.703125 L 242.167969 198.277344 L 241.039062 199.777344 L 239.804688 201.1875 L 238.460938 202.507812 L 237.019531 203.726562 L 235.484375 204.835938 L 233.871094 205.835938 L 232.183594 206.710938 L 230.429688 207.460938 L 228.625 208.082031 L 226.773438 208.570312 L 224.890625 208.917969 L 222.988281 209.128906 L 221.070312 209.199219 L 219.15625 209.128906 L 217.25 208.917969 L 215.367188 208.570312 L 213.515625 208.082031 L 211.710938 207.460938 L 209.960938 206.710938 L 208.269531 205.835938 L 206.65625 204.835938 L 205.125 203.726562 L 203.679688 202.507812 L 202.335938 201.1875 L 201.101562 199.777344 L 199.976562 198.277344 L 198.96875 196.703125 L 198.085938 195.0625 L 197.328125 193.363281 L 196.707031 191.613281 L 196.21875 189.824219 L 195.867188 188.007812 L 195.65625 186.167969 L 195.585938 184.320312 L 195.65625 182.472656 L 195.867188 180.632812 L 196.21875 178.8125 L 196.707031 177.023438 L 197.328125 175.277344 L 198.085938 173.574219 L 198.96875 171.933594 L 199.976562 170.359375 L 201.101562 168.863281 L 202.335938 167.449219 L 203.679688 166.128906 L 205.125 164.910156 L 206.65625 163.800781 L 208.269531 162.804688 L 209.960938 161.925781 L 211.710938 161.175781 L 213.515625 160.554688 L 215.367188 160.070312 L 217.25 159.71875 L 219.15625 159.507812 L 221.070312 159.4375 L 222.988281 159.507812 L 224.890625 159.71875 L 226.773438 160.070312 L 228.625 160.554688 L 230.429688 161.175781 L 232.183594 161.925781 L 233.871094 162.804688 L 235.484375 163.800781 L 237.019531 164.910156 L 238.460938 166.128906 L 239.804688 167.449219 L 241.039062 168.863281 L 242.167969 170.359375 L 243.171875 171.933594 L 244.054688 173.574219 L 244.8125 175.277344 L 245.433594 177.023438 L 245.921875 178.8125 L 246.273438 180.632812 L 246.484375 182.472656 L 246.554688 184.320312 "/>
</g>
<mask id="mask-10">
<use xlink:href="#compositing-group-15"/>
</mask>
<mask id="mask-11">
<use xlink:href="#compositing-group-15" filter="url(#filter-remove-color-and-invert-alpha)"/>
</mask>
<g id="compositing-group-16" mask="url(#mask-10)">
<g transform="translate(36.8498, 35.99942)">
<rect x="-36.8498" y="-35.99942" width="442.1976" height="431.99304" fill="rgb(0%, 0%, 0%)" fill-opacity="1"/>
</g>
</g>
<g id="compositing-group-17" mask="url(#mask-11)">
<g transform="translate(36.8498, 35.99942)">
<g filter="url(#filter-4)" transform="translate(-36.8498, -35.99942)">
<rect x="0" y="0" width="442.1976" height="431.99304" fill="rgb(0%, 0%, 0%)" fill-opacity="1"/>
</g>
</g>
</g>
<g id="compositing-group-18" transform="translate(36.8498, 35.99942)">
<rect x="-36.8498" y="-35.99942" width="442.1976" height="431.99304" fill="rgb(0%, 0%, 0%)" fill-opacity="0"/>
<path fill="none" stroke-width="1.41" stroke-linecap="round" stroke-linejoin="round" stroke="rgb(100%, 100%, 100%)" stroke-opacity="1" stroke-miterlimit="10" d="M 354.082031 184.105469 L 354.011719 185.953125 L 353.800781 187.792969 L 353.453125 189.609375 L 352.964844 191.398438 L 352.339844 193.148438 L 351.585938 194.847656 L 350.703125 196.492188 L 349.695312 198.066406 L 348.570312 199.5625 L 347.332031 200.972656 L 345.988281 202.292969 L 344.546875 203.511719 L 343.015625 204.625 L 341.398438 205.621094 L 339.710938 206.496094 L 337.957031 207.25 L 336.152344 207.867188 L 334.304688 208.355469 L 332.421875 208.707031 L 330.515625 208.917969 L 328.597656 208.988281 L 326.683594 208.917969 L 324.777344 208.707031 L 322.894531 208.355469 L 321.046875 207.867188 L 319.242188 207.25 L 317.488281 206.496094 L 315.800781 205.621094 L 314.183594 204.625 L 312.652344 203.511719 L 311.210938 202.292969 L 309.867188 200.972656 L 308.628906 199.5625 L 307.503906 198.066406 L 306.496094 196.492188 L 305.613281 194.847656 L 304.859375 193.148438 L 304.234375 191.398438 L 303.746094 189.609375 L 303.398438 187.792969 L 303.1875 185.953125 L 303.117188 184.105469 L 303.1875 182.257812 L 303.398438 180.417969 L 303.746094 178.601562 L 304.234375 176.8125 L 304.859375 175.0625 L 305.613281 173.363281 L 306.496094 171.71875 L 307.503906 170.148438 L 308.628906 168.648438 L 309.867188 167.238281 L 311.210938 165.917969 L 312.652344 164.699219 L 314.183594 163.585938 L 315.800781 162.589844 L 317.488281 161.714844 L 319.242188 160.964844 L 321.046875 160.34375 L 322.894531 159.855469 L 324.777344 159.503906 L 326.683594 159.292969 L 328.597656 159.222656 L 330.515625 159.292969 L 332.421875 159.503906 L 334.304688 159.855469 L 336.152344 160.34375 L 337.957031 160.964844 L 339.710938 161.714844 L 341.398438 162.589844 L 343.015625 163.585938 L 344.546875 164.699219 L 345.988281 165.917969 L 347.332031 167.238281 L 348.570312 168.648438 L 349.695312 170.148438 L 350.703125 171.71875 L 351.585938 173.363281 L 352.339844 175.0625 L 352.964844 176.8125 L 353.453125 178.601562 L 353.800781 180.417969 L 354.011719 182.257812 L 354.082031 184.105469 "/>
</g>
<mask id="mask-12">
<use xlink:href="#compositing-group-18"/>
</mask>
<mask id="mask-13">
<use xlink:href="#compositing-group-18" filter="url(#filter-remove-color-and-invert-alpha)"/>
</mask>
<g id="compositing-group-19" mask="url(#mask-12)">
<g transform="translate(36.8498, 35.99942)">
<rect x="-36.8498" y="-35.99942" width="442.1976" height="431.99304" fill="rgb(0%, 0%, 0%)" fill-opacity="1"/>
</g>
</g>
<g id="compositing-group-20" mask="url(#mask-13)">
<g transform="translate(36.8498, 35.99942)">
<g filter="url(#filter-5)" transform="translate(-36.8498, -35.99942)">
<rect x="0" y="0" width="442.1976" height="431.99304" fill="rgb(0%, 0%, 0%)" fill-opacity="1"/>
</g>
</g>
</g>
<g id="compositing-group-21" transform="translate(36.8498, 35.99942)">
<rect x="-36.8498" y="-35.99942" width="442.1976" height="431.99304" fill="rgb(0%, 0%, 0%)" fill-opacity="0"/>
<path fill="none" stroke-width="1.41" stroke-linecap="round" stroke-linejoin="round" stroke="rgb(100%, 100%, 100%)" stroke-opacity="1" stroke-miterlimit="10" d="M 64.269531 303.515625 L 64.199219 305.367188 L 63.988281 307.203125 L 63.636719 309.023438 L 63.148438 310.8125 L 62.523438 312.5625 L 61.769531 314.261719 L 60.886719 315.902344 L 59.878906 317.476562 L 58.753906 318.972656 L 57.515625 320.386719 L 56.171875 321.707031 L 54.730469 322.925781 L 53.199219 324.035156 L 51.582031 325.03125 L 49.894531 325.910156 L 48.144531 326.660156 L 46.335938 327.28125 L 44.488281 327.769531 L 42.605469 328.117188 L 40.699219 328.328125 L 38.785156 328.398438 L 36.867188 328.328125 L 34.964844 328.117188 L 33.082031 327.769531 L 31.230469 327.28125 L 29.425781 326.660156 L 27.671875 325.910156 L 25.984375 325.03125 L 24.371094 324.035156 L 22.835938 322.925781 L 21.394531 321.707031 L 20.050781 320.386719 L 18.8125 318.972656 L 17.6875 317.476562 L 16.679688 315.902344 L 15.796875 314.261719 L 15.042969 312.5625 L 14.417969 310.8125 L 13.929688 309.023438 L 13.582031 307.203125 L 13.371094 305.367188 L 13.300781 303.515625 L 13.371094 301.667969 L 13.582031 299.832031 L 13.929688 298.011719 L 14.417969 296.222656 L 15.042969 294.472656 L 15.796875 292.773438 L 16.679688 291.132812 L 17.6875 289.558594 L 18.8125 288.0625 L 20.050781 286.648438 L 21.394531 285.328125 L 22.835938 284.109375 L 24.371094 283 L 25.984375 282.003906 L 27.671875 281.125 L 29.425781 280.375 L 31.230469 279.753906 L 33.082031 279.265625 L 34.964844 278.917969 L 36.867188 278.707031 L 38.785156 278.636719 L 40.699219 278.707031 L 42.605469 278.917969 L 44.488281 279.265625 L 46.335938 279.753906 L 48.144531 280.375 L 49.894531 281.125 L 51.582031 282.003906 L 53.199219 283 L 54.730469 284.109375 L 56.171875 285.328125 L 57.515625 286.648438 L 58.753906 288.0625 L 59.878906 289.558594 L 60.886719 291.132812 L 61.769531 292.773438 L 62.523438 294.472656 L 63.148438 296.222656 L 63.636719 298.011719 L 63.988281 299.832031 L 64.199219 301.667969 L 64.269531 303.515625 "/>
</g>
<mask id="mask-14">
<use xlink:href="#compositing-group-21"/>
</mask>
<mask id="mask-15">
<use xlink:href="#compositing-group-21" filter="url(#filter-remove-color-and-invert-alpha)"/>
</mask>
<g id="compositing-group-22" mask="url(#mask-14)">
<g transform="translate(36.8498, 35.99942)">
<rect x="-36.8498" y="-35.99942" width="442.1976" height="431.99304" fill="rgb(0%, 0%, 0%)" fill-opacity="1"/>
</g>
</g>
<g id="compositing-group-23" mask="url(#mask-15)">
<g transform="translate(36.8498, 35.99942)">
<g filter="url(#filter-6)" transform="translate(-36.8498, -35.99942)">
<rect x="0" y="0" width="442.1976" height="431.99304" fill="rgb(0%, 0%, 0%)" fill-opacity="1"/>
</g>
</g>
</g>
<g id="compositing-group-24" transform="translate(36.8498, 35.99942)">
<rect x="-36.8498" y="-35.99942" width="442.1976" height="431.99304" fill="rgb(0%, 0%, 0%)" fill-opacity="0"/>
<g fill="rgb(100%, 100%, 100%)" fill-opacity="1">
<use xlink:href="#glyph-0-0" x="194.571278" y="41.056673"/>
</g>
</g>
<mask id="mask-16">
<use xlink:href="#compositing-group-24"/>
</mask>
<mask id="mask-17">
<use xlink:href="#compositing-group-24" filter="url(#filter-remove-color-and-invert-alpha)"/>
</mask>
<g id="compositing-group-25" mask="url(#mask-16)">
<g transform="translate(36.8498, 35.99942)">
<rect x="-36.8498" y="-35.99942" width="442.1976" height="431.99304" fill="rgb(0%, 0%, 0%)" fill-opacity="1"/>
</g>
</g>
<g id="compositing-group-26" mask="url(#mask-17)">
<g transform="translate(36.8498, 35.99942)">
<g filter="url(#filter-7)" transform="translate(-36.8498, -35.99942)">
<rect x="0" y="0" width="442.1976" height="431.99304" fill="rgb(0%, 0%, 0%)" fill-opacity="1"/>
</g>
</g>
</g>
<g id="compositing-group-27" transform="translate(36.8498, 35.99942)">
<rect x="-36.8498" y="-35.99942" width="442.1976" height="431.99304" fill="rgb(0%, 0%, 0%)" fill-opacity="0"/>
<g fill="rgb(100%, 100%, 100%)" fill-opacity="1">
<use xlink:href="#glyph-0-1" x="113.229741" y="114.253515"/>
</g>
</g>
<mask id="mask-18">
<use xlink:href="#compositing-group-27"/>
</mask>
<mask id="mask-19">
<use xlink:href="#compositing-group-27" filter="url(#filter-remove-color-and-invert-alpha)"/>
</mask>
<g id="compositing-group-28" mask="url(#mask-18)">
<g transform="translate(36.8498, 35.99942)">
<rect x="-36.8498" y="-35.99942" width="442.1976" height="431.99304" fill="rgb(0%, 0%, 0%)" fill-opacity="1"/>
</g>
</g>
<g id="compositing-group-29" mask="url(#mask-19)">
<g transform="translate(36.8498, 35.99942)">
<g filter="url(#filter-8)" transform="translate(-36.8498, -35.99942)">
<rect x="0" y="0" width="442.1976" height="431.99304" fill="rgb(0%, 0%, 0%)" fill-opacity="1"/>
</g>
</g>
</g>
<g id="compositing-group-30" transform="translate(36.8498, 35.99942)">
<rect x="-36.8498" y="-35.99942" width="442.1976" height="431.99304" fill="rgb(0%, 0%, 0%)" fill-opacity="0"/>
<g fill="rgb(100%, 100%, 100%)" fill-opacity="1">
<use xlink:href="#glyph-0-2" x="31.66875" y="188.748238"/>
<use xlink:href="#glyph-0-3" x="38.66875" y="188.748238"/>
</g>
</g>
<mask id="mask-20">
<use xlink:href="#compositing-group-30"/>
</mask>
<mask id="mask-21">
<use xlink:href="#compositing-group-30" filter="url(#filter-remove-color-and-invert-alpha)"/>
</mask>
<g id="compositing-group-31" mask="url(#mask-20)">
<g transform="translate(36.8498, 35.99942)">
<rect x="-36.8498" y="-35.99942" width="442.1976" height="431.99304" fill="rgb(0%, 0%, 0%)" fill-opacity="1"/>
</g>
</g>
<g id="compositing-group-32" mask="url(#mask-21)">
<g transform="translate(36.8498, 35.99942)">
<g filter="url(#filter-9)" transform="translate(-36.8498, -35.99942)">
<rect x="0" y="0" width="442.1976" height="431.99304" fill="rgb(0%, 0%, 0%)" fill-opacity="1"/>
</g>
</g>
</g>
<g id="compositing-group-33" transform="translate(36.8498, 35.99942)">
<rect x="-36.8498" y="-35.99942" width="442.1976" height="431.99304" fill="rgb(0%, 0%, 0%)" fill-opacity="0"/>
<g fill="rgb(100%, 100%, 100%)" fill-opacity="1">
<use xlink:href="#glyph-0-4" x="33.686231" y="307.245698"/>
</g>
</g>
<mask id="mask-22">
<use xlink:href="#compositing-group-33"/>
</mask>
<mask id="mask-23">
<use xlink:href="#compositing-group-33" filter="url(#filter-remove-color-and-invert-alpha)"/>
</mask>
<g id="compositing-group-34" mask="url(#mask-22)">
<g transform="translate(36.8498, 35.99942)">
<rect x="-36.8498" y="-35.99942" width="442.1976" height="431.99304" fill="rgb(0%, 0%, 0%)" fill-opacity="1"/>
</g>
</g>
<g id="compositing-group-35" mask="url(#mask-23)">
<g transform="translate(36.8498, 35.99942)">
<g filter="url(#filter-10)" transform="translate(-36.8498, -35.99942)">
<rect x="0" y="0" width="442.1976" height="431.99304" fill="rgb(0%, 0%, 0%)" fill-opacity="1"/>
</g>
</g>
</g>
<g id="compositing-group-36" transform="translate(36.8498, 35.99942)">
<rect x="-36.8498" y="-35.99942" width="442.1976" height="431.99304" fill="rgb(0%, 0%, 0%)" fill-opacity="0"/>
<g fill="rgb(100%, 100%, 100%)" fill-opacity="1">
<use xlink:href="#glyph-0-5" x="109.435356" y="235.522888"/>
<use xlink:href="#glyph-0-4" x="116.435356" y="235.522888"/>
</g>
</g>
<mask id="mask-24">
<use xlink:href="#compositing-group-36"/>
</mask>
<mask id="mask-25">
<use xlink:href="#compositing-group-36" filter="url(#filter-remove-color-and-invert-alpha)"/>
</mask>
<g id="compositing-group-37" mask="url(#mask-24)">
<g transform="translate(36.8498, 35.99942)">
<rect x="-36.8498" y="-35.99942" width="442.1976" height="431.99304" fill="rgb(0%, 0%, 0%)" fill-opacity="1"/>
</g>
</g>
<g id="compositing-group-38" mask="url(#mask-25)">
<g transform="translate(36.8498, 35.99942)">
<g filter="url(#filter-11)" transform="translate(-36.8498, -35.99942)">
<rect x="0" y="0" width="442.1976" height="431.99304" fill="rgb(0%, 0%, 0%)" fill-opacity="1"/>
</g>
</g>
</g>
<g id="compositing-group-39" transform="translate(36.8498, 35.99942)">
<rect x="-36.8498" y="-35.99942" width="442.1976" height="431.99304" fill="rgb(0%, 0%, 0%)" fill-opacity="0"/>
<g fill="rgb(100%, 100%, 100%)" fill-opacity="1">
<use xlink:href="#glyph-0-6" x="272.170693" y="115.496005"/>
</g>
</g>
<mask id="mask-26">
<use xlink:href="#compositing-group-39"/>
</mask>
<mask id="mask-27">
<use xlink:href="#compositing-group-39" filter="url(#filter-remove-color-and-invert-alpha)"/>
</mask>
<g id="compositing-group-40" mask="url(#mask-26)">
<g transform="translate(36.8498, 35.99942)">
<rect x="-36.8498" y="-35.99942" width="442.1976" height="431.99304" fill="rgb(0%, 0%, 0%)" fill-opacity="1"/>
</g>
</g>
<g id="compositing-group-41" mask="url(#mask-27)">
<g transform="translate(36.8498, 35.99942)">
<g filter="url(#filter-12)" transform="translate(-36.8498, -35.99942)">
<rect x="0" y="0" width="442.1976" height="431.99304" fill="rgb(0%, 0%, 0%)" fill-opacity="1"/>
</g>
</g>
</g>
<g id="compositing-group-42" transform="translate(36.8498, 35.99942)">
<rect x="-36.8498" y="-35.99942" width="442.1976" height="431.99304" fill="rgb(0%, 0%, 0%)" fill-opacity="0"/>
<g fill="rgb(100%, 100%, 100%)" fill-opacity="1">
<use xlink:href="#glyph-0-6" x="213.209051" y="187.892176"/>
<use xlink:href="#glyph-0-5" x="220.209051" y="187.892176"/>
</g>
</g>
<mask id="mask-28">
<use xlink:href="#compositing-group-42"/>
</mask>
<mask id="mask-29">
<use xlink:href="#compositing-group-42" filter="url(#filter-remove-color-and-invert-alpha)"/>
</mask>
<g id="compositing-group-43" mask="url(#mask-28)">
<g transform="translate(36.8498, 35.99942)">
<rect x="-36.8498" y="-35.99942" width="442.1976" height="431.99304" fill="rgb(0%, 0%, 0%)" fill-opacity="1"/>
</g>
</g>
<g id="compositing-group-44" mask="url(#mask-29)">
<g transform="translate(36.8498, 35.99942)">
<g filter="url(#filter-13)" transform="translate(-36.8498, -35.99942)">
<rect x="0" y="0" width="442.1976" height="431.99304" fill="rgb(0%, 0%, 0%)" fill-opacity="1"/>
</g>
</g>
</g>
<g id="compositing-group-45" transform="translate(36.8498, 35.99942)">
<rect x="-36.8498" y="-35.99942" width="442.1976" height="431.99304" fill="rgb(0%, 0%, 0%)" fill-opacity="0"/>
<g fill="rgb(100%, 100%, 100%)" fill-opacity="1">
<use xlink:href="#glyph-0-3" x="320.926248" y="187.427335"/>
<use xlink:href="#glyph-0-3" x="327.926248" y="187.427335"/>
</g>
</g>
<mask id="mask-30">
<use xlink:href="#compositing-group-45"/>
</mask>
<mask id="mask-31">
<use xlink:href="#compositing-group-45" filter="url(#filter-remove-color-and-invert-alpha)"/>
</mask>
<g id="compositing-group-46" mask="url(#mask-30)">
<g transform="translate(36.8498, 35.99942)">
<rect x="-36.8498" y="-35.99942" width="442.1976" height="431.99304" fill="rgb(0%, 0%, 0%)" fill-opacity="1"/>
</g>
</g>
<g id="compositing-group-47" mask="url(#mask-31)">
<g transform="translate(36.8498, 35.99942)">
<g filter="url(#filter-14)" transform="translate(-36.8498, -35.99942)">
<rect x="0" y="0" width="442.1976" height="431.99304" fill="rgb(0%, 0%, 0%)" fill-opacity="1"/>
</g>
</g>
</g>
<g id="compositing-group-48" transform="translate(36.8498, 35.99942)">
<rect x="-36.8498" y="-35.99942" width="442.1976" height="431.99304" fill="rgb(0%, 0%, 0%)" fill-opacity="0"/>
<path fill="none" stroke-width="1.41" stroke-linecap="round" stroke-linejoin="round" stroke="rgb(100%, 100%, 100%)" stroke-opacity="1" stroke-miterlimit="10" d="M 198.023438 62.378906 L 138.765625 96.589844 L 148.636719 96.589844 L 138.765625 96.589844 L 143.703125 88.042969 L 138.765625 96.589844 "/>
</g>
<mask id="mask-32">
<use xlink:href="#compositing-group-48"/>
</mask>
<mask id="mask-33">
<use xlink:href="#compositing-group-48" filter="url(#filter-remove-color-and-invert-alpha)"/>
</mask>
<g id="compositing-group-49" mask="url(#mask-32)">
<g transform="translate(36.8498, 35.99942)">
<rect x="-36.8498" y="-35.99942" width="442.1976" height="431.99304" fill="rgb(0%, 0%, 0%)" fill-opacity="1"/>
</g>
</g>
<g id="compositing-group-50" mask="url(#mask-33)">
<g transform="translate(36.8498, 35.99942)">
<g filter="url(#filter-15)" transform="translate(-36.8498, -35.99942)">
<rect x="0" y="0" width="442.1976" height="431.99304" fill="rgb(0%, 0%, 0%)" fill-opacity="1"/>
</g>
</g>
</g>
<g id="compositing-group-51" transform="translate(36.8498, 35.99942)">
<rect x="-36.8498" y="-35.99942" width="442.1976" height="431.99304" fill="rgb(0%, 0%, 0%)" fill-opacity="0"/>
<path fill="none" stroke-width="1.41" stroke-linecap="round" stroke-linejoin="round" stroke="rgb(100%, 100%, 100%)" stroke-opacity="1" stroke-miterlimit="10" d="M 197.710938 61.984375 L 247.824219 101.183594 L 244.128906 92.03125 L 247.824219 101.183594 L 238.050781 99.804688 L 247.824219 101.183594 "/>
</g>
<mask id="mask-34">
<use xlink:href="#compositing-group-51"/>
</mask>
<mask id="mask-35">
<use xlink:href="#compositing-group-51" filter="url(#filter-remove-color-and-invert-alpha)"/>
</mask>
<g id="compositing-group-52" mask="url(#mask-34)">
<g transform="translate(36.8498, 35.99942)">
<rect x="-36.8498" y="-35.99942" width="442.1976" height="431.99304" fill="rgb(0%, 0%, 0%)" fill-opacity="1"/>
</g>
</g>
<g id="compositing-group-53" mask="url(#mask-35)">
<g transform="translate(36.8498, 35.99942)">
<g filter="url(#filter-16)" transform="translate(-36.8498, -35.99942)">
<rect x="0" y="0" width="442.1976" height="431.99304" fill="rgb(0%, 0%, 0%)" fill-opacity="1"/>
</g>
</g>
</g>
<g id="compositing-group-54" transform="translate(36.8498, 35.99942)">
<rect x="-36.8498" y="-35.99942" width="442.1976" height="431.99304" fill="rgb(0%, 0%, 0%)" fill-opacity="0"/>
<path fill="none" stroke-width="1.41" stroke-linecap="round" stroke-linejoin="round" stroke="rgb(100%, 100%, 100%)" stroke-opacity="1" stroke-miterlimit="10" d="M 276.769531 136.578125 L 246.382812 169.925781 L 255.785156 166.933594 L 246.382812 169.925781 L 248.492188 160.285156 L 246.382812 169.925781 "/>
</g>
<mask id="mask-36">
<use xlink:href="#compositing-group-54"/>
</mask>
<mask id="mask-37">
<use xlink:href="#compositing-group-54" filter="url(#filter-remove-color-and-invert-alpha)"/>
</mask>
<g id="compositing-group-55" mask="url(#mask-36)">
<g transform="translate(36.8498, 35.99942)">
<rect x="-36.8498" y="-35.99942" width="442.1976" height="431.99304" fill="rgb(0%, 0%, 0%)" fill-opacity="1"/>
</g>
</g>
<g id="compositing-group-56" mask="url(#mask-37)">
<g transform="translate(36.8498, 35.99942)">
<g filter="url(#filter-17)" transform="translate(-36.8498, -35.99942)">
<rect x="0" y="0" width="442.1976" height="431.99304" fill="rgb(0%, 0%, 0%)" fill-opacity="1"/>
</g>
</g>
</g>
<g id="compositing-group-57" transform="translate(36.8498, 35.99942)">
<rect x="-36.8498" y="-35.99942" width="442.1976" height="431.99304" fill="rgb(0%, 0%, 0%)" fill-opacity="0"/>
<path fill="none" stroke-width="1.41" stroke-linecap="round" stroke-linejoin="round" stroke="rgb(100%, 100%, 100%)" stroke-opacity="1" stroke-miterlimit="10" d="M 277.128906 137.402344 L 303.390625 171.324219 L 302.058594 161.542969 L 303.390625 171.324219 L 294.253906 167.585938 L 303.390625 171.324219 "/>
</g>
<mask id="mask-38">
<use xlink:href="#compositing-group-57"/>
</mask>
<mask id="mask-39">
<use xlink:href="#compositing-group-57" filter="url(#filter-remove-color-and-invert-alpha)"/>
</mask>
<g id="compositing-group-58" mask="url(#mask-38)">
<g transform="translate(36.8498, 35.99942)">
<rect x="-36.8498" y="-35.99942" width="442.1976" height="431.99304" fill="rgb(0%, 0%, 0%)" fill-opacity="1"/>
</g>
</g>
<g id="compositing-group-59" mask="url(#mask-39)">
<g transform="translate(36.8498, 35.99942)">
<g filter="url(#filter-18)" transform="translate(-36.8498, -35.99942)">
<rect x="0" y="0" width="442.1976" height="431.99304" fill="rgb(0%, 0%, 0%)" fill-opacity="1"/>
</g>
</g>
</g>
<g id="compositing-group-60" transform="translate(36.8498, 35.99942)">
<rect x="-36.8498" y="-35.99942" width="442.1976" height="431.99304" fill="rgb(0%, 0%, 0%)" fill-opacity="0"/>
<path fill="none" stroke-width="1.41" stroke-linecap="round" stroke-linejoin="round" stroke="rgb(100%, 100%, 100%)" stroke-opacity="1" stroke-miterlimit="10" d="M 116.621094 137.402344 L 66.097656 173.648438 L 75.921875 172.675781 L 66.097656 173.648438 L 70.167969 164.65625 L 66.097656 173.648438 "/>
</g>
<mask id="mask-40">
<use xlink:href="#compositing-group-60"/>
</mask>
<mask id="mask-41">
<use xlink:href="#compositing-group-60" filter="url(#filter-remove-color-and-invert-alpha)"/>
</mask>
<g id="compositing-group-61" mask="url(#mask-40)">
<g transform="translate(36.8498, 35.99942)">
<rect x="-36.8498" y="-35.99942" width="442.1976" height="431.99304" fill="rgb(0%, 0%, 0%)" fill-opacity="1"/>
</g>
</g>
<g id="compositing-group-62" mask="url(#mask-41)">
<g transform="translate(36.8498, 35.99942)">
<g filter="url(#filter-19)" transform="translate(-36.8498, -35.99942)">
<rect x="0" y="0" width="442.1976" height="431.99304" fill="rgb(0%, 0%, 0%)" fill-opacity="1"/>
</g>
</g>
</g>
<g id="compositing-group-63" transform="translate(36.8498, 35.99942)">
<rect x="-36.8498" y="-35.99942" width="442.1976" height="431.99304" fill="rgb(0%, 0%, 0%)" fill-opacity="0"/>
<path fill="none" stroke-width="1.41" stroke-linecap="round" stroke-linejoin="round" stroke="rgb(100%, 100%, 100%)" stroke-opacity="1" stroke-miterlimit="10" d="M 38.339844 210.746094 L 87.203125 230.949219 L 81.191406 223.121094 L 87.203125 230.949219 L 77.417969 232.242188 L 87.203125 230.949219 "/>
</g>
<mask id="mask-42">
<use xlink:href="#compositing-group-63"/>
</mask>
<mask id="mask-43">
<use xlink:href="#compositing-group-63" filter="url(#filter-remove-color-and-invert-alpha)"/>
</mask>
<g id="compositing-group-64" mask="url(#mask-42)">
<g transform="translate(36.8498, 35.99942)">
<rect x="-36.8498" y="-35.99942" width="442.1976" height="431.99304" fill="rgb(0%, 0%, 0%)" fill-opacity="1"/>
</g>
</g>
<g id="compositing-group-65" mask="url(#mask-43)">
<g transform="translate(36.8498, 35.99942)">
<g filter="url(#filter-20)" transform="translate(-36.8498, -35.99942)">
<rect x="0" y="0" width="442.1976" height="431.99304" fill="rgb(0%, 0%, 0%)" fill-opacity="1"/>
</g>
</g>
</g>
<g id="compositing-group-66" transform="translate(36.8498, 35.99942)">
<rect x="-36.8498" y="-35.99942" width="442.1976" height="431.99304" fill="rgb(0%, 0%, 0%)" fill-opacity="0"/>
<path fill="none" stroke-width="1.41" stroke-linecap="round" stroke-linejoin="round" stroke="rgb(100%, 100%, 100%)" stroke-opacity="1" stroke-miterlimit="10" d="M 115.886719 257.789062 L 64.890625 291.867188 L 74.742188 291.21875 L 64.890625 291.867188 L 69.257812 283.011719 L 64.890625 291.867188 "/>
</g>
<mask id="mask-44">
<use xlink:href="#compositing-group-66"/>
</mask>
<mask id="mask-45">
<use xlink:href="#compositing-group-66" filter="url(#filter-remove-color-and-invert-alpha)"/>
</mask>
<g id="compositing-group-67" mask="url(#mask-44)">
<g transform="translate(36.8498, 35.99942)">
<rect x="-36.8498" y="-35.99942" width="442.1976" height="431.99304" fill="rgb(0%, 0%, 0%)" fill-opacity="1"/>
</g>
</g>
<g id="compositing-group-68" mask="url(#mask-45)">
<g transform="translate(36.8498, 35.99942)">
<g filter="url(#filter-21)" transform="translate(-36.8498, -35.99942)">
<rect x="0" y="0" width="442.1976" height="431.99304" fill="rgb(0%, 0%, 0%)" fill-opacity="1"/>
</g>
</g>
</g>
</defs>
<g filter="url(#filter-22)" transform="translate(-36.8498, -35.99942)">
<rect x="0" y="0" width="442.1976" height="431.99304" fill="rgb(0%, 0%, 0%)" fill-opacity="1"/>
</g>
</svg>
