<?xml version="1.0" encoding="UTF-8"?>
<svg xmlns="http://www.w3.org/2000/svg" xmlns:xlink="http://www.w3.org/1999/xlink" width="765.342" height="303.3022" viewBox="0 0 765.342 303.3022">
<defs>
<filter id="filter-remove-color-and-invert-alpha" x="0%" y="0%" width="100%" height="100%">
<feColorMatrix color-interpolation-filters="sRGB" values="0 0 0 0 1 0 0 0 0 1 0 0 0 0 1 0 0 0 -1 1"/>
</filter>
<filter id="filter-0" x="0%" y="0%" width="100%" height="100%">
<feImage xlink:href="#compositing-group-1" result="source" x="0" y="0" width="918.4104" height="363.96264"/>
<feImage xlink:href="#compositing-group-2" result="destination" x="0" y="0" width="918.4104" height="363.96264"/>
<feComposite in="source" in2="destination" operator="arithmetic" k1="0" k2="1" k3="1" k4="0" color-interpolation-filters="sRGB"/>
</filter>
<filter id="filter-1" x="0%" y="0%" width="100%" height="100%">
<feImage xlink:href="#compositing-group-4" result="source" x="0" y="0" width="918.4104" height="363.96264"/>
<feImage xlink:href="#compositing-group-5" result="destination" x="0" y="0" width="918.4104" height="363.96264"/>
<feComposite in="source" in2="destination" operator="arithmetic" k1="0" k2="1" k3="1" k4="0" color-interpolation-filters="sRGB"/>
</filter>
<filter id="filter-2" x="0%" y="0%" width="100%" height="100%">
<feImage xlink:href="#compositing-group-7" result="source" x="0" y="0" width="918.4104" height="363.96264"/>
<feImage xlink:href="#compositing-group-8" result="destination" x="0" y="0" width="918.4104" height="363.96264"/>
<feComposite in="source" in2="destination" operator="arithmetic" k1="0" k2="1" k3="1" k4="0" color-interpolation-filters="sRGB"/>
</filter>
<filter id="filter-3" x="0%" y="0%" width="100%" height="100%">
<feImage xlink:href="#compositing-group-10" result="source" x="0" y="0" width="918.4104" height="363.96264"/>
<feImage xlink:href="#compositing-group-11" result="destination" x="0" y="0" width="918.4104" height="363.96264"/>
<feComposite in="source" in2="destination" operator="arithmetic" k1="0" k2="1" k3="1" k4="0" color-interpolation-filters="sRGB"/>
</filter>
<filter id="filter-4" x="0%" y="0%" width="100%" height="100%">
<feImage xlink:href="#compositing-group-13" result="source" x="0" y="0" width="918.4104" height="363.96264"/>
<feImage xlink:href="#compositing-group-14" result="destination" x="0" y="0" width="918.4104" height="363.96264"/>
<feComposite in="source" in2="destination" operator="arithmetic" k1="0" k2="1" k3="1" k4="0" color-interpolation-filters="sRGB"/>
</filter>
<filter id="filter-5" x="0%" y="0%" width="100%" height="100%">
<feImage xlink:href="#compositing-group-16" result="source" x="0" y="0" width="918.4104" height="363.96264"/>
<feImage xlink:href="#compositing-group-17" result="destination" x="0" y="0" width="918.4104" height="363.96264"/>
<feComposite in="source" in2="destination" operator="arithmetic" k1="0" k2="1" k3="1" k4="0" color-interpolation-filters="sRGB"/>
</filter>
<filter id="filter-6" x="0%" y="0%" width="100%" height="100%">
<feImage xlink:href="#compositing-group-19" result="source" x="0" y="0" width="918.4104" height="363.96264"/>
<feImage xlink:href="#compositing-group-20" result="destination" x="0" y="0" width="918.4104" height="363.96264"/>
<feComposite in="source" in2="destination" operator="arithmetic" k1="0" k2="1" k3="1" k4="0" color-interpolation-filters="sRGB"/>
</filter>
<filter id="filter-7" x="0%" y="0%" width="100%" height="100%">
<feImage xlink:href="#compositing-group-22" result="source" x="0" y="0" width="918.4104" height="363.96264"/>
<feImage xlink:href="#compositing-group-23" result="destination" x="0" y="0" width="918.4104" height="363.96264"/>
<feComposite in="source" in2="destination" operator="arithmetic" k1="0" k2="1" k3="1" k4="0" color-interpolation-filters="sRGB"/>
</filter>
<filter id="filter-8" x="0%" y="0%" width="100%" height="100%">
<feImage xlink:href="#compositing-group-25" result="source" x="0" y="0" width="918.4104" height="363.96264"/>
<feImage xlink:href="#compositing-group-26" result="destination" x="0" y="0" width="918.4104" height="363.96264"/>
<feComposite in="source" in2="destination" operator="arithmetic" k1="0" k2="1" k3="1" k4="0" color-interpolation-filters="sRGB"/>
</filter>
<filter id="filter-9" x="0%" y="0%" width="100%" height="100%">
<feImage xlink:href="#compositing-group-28" result="source" x="0" y="0" width="918.4104" height="363.96264"/>
<feImage xlink:href="#compositing-group-29" result="destination" x="0" y="0" width="918.4104" height="363.96264"/>
<feComposite in="source" in2="destination" operator="arithmetic" k1="0" k2="1" k3="1" k4="0" color-interpolation-filters="sRGB"/>
</filter>
<filter id="filter-10" x="0%" y="0%" width="100%" height="100%">
<feImage xlink:href="#compositing-group-31" result="source" x="0" y="0" width="918.4104" height="363.96264"/>
<feImage xlink:href="#compositing-group-32" result="destination" x="0" y="0" width="918.4104" height="363.96264"/>
<feComposite in="source" in2="destination" operator="arithmetic" k1="0" k2="1" k3="1" k4="0" color-interpolation-filters="sRGB"/>
</filter>
<filter id="filter-11" x="0%" y="0%" width="100%" height="100%">
<feImage xlink:href="#compositing-group-34" result="source" x="0" y="0" width="918.4104" height="363.96264"/>
<feImage xlink:href="#compositing-group-35" result="destination" x="0" y="0" width="918.4104" height="363.96264"/>
<feComposite in="source" in2="destination" operator="arithmetic" k1="0" k2="1" k3="1" k4="0" color-interpolation-filters="sRGB"/>
</filter>
<filter id="filter-12" x="0%" y="0%" width="100%" height="100%">
<feImage xlink:href="#compositing-group-37" result="source" x="0" y="0" width="918.4104" height="363.96264"/>
<feImage xlink:href="#compositing-group-38" result="destination" x="0" y="0" width="918.4104" height="363.96264"/>
<feComposite in="source" in2="destination" operator="arithmetic" k1="0" k2="1" k3="1" k4="0" color-interpolation-filters="sRGB"/>
</filter>
<filter id="filter-13" x="0%" y="0%" width="100%" height="100%">
<feImage xlink:href="#compositing-group-40" result="source" x="0" y="0" width="918.4104" height="363.96264"/>
<feImage xlink:href="#compositing-group-41" result="destination" x="0" y="0" width="918.4104" height="363.96264"/>
<feComposite in="source" in2="destination" operator="arithmetic" k1="0" k2="1" k3="1" k4="0" color-interpolation-filters="sRGB"/>
</filter>
<filter id="filter-14" x="0%" y="0%" width="100%" height="100%">
<feImage xlink:href="#compositing-group-43" result="source" x="0" y="0" width="918.4104" height="363.96264"/>
<feImage xlink:href="#compositing-group-44" result="destination" x="0" y="0" width="918.4104" height="363.96264"/>
<feComposite in="source" in2="destination" operator="arithmetic" k1="0" k2="1" k3="1" k4="0" color-interpolation-filters="sRGB"/>
</filter>
<filter id="filter-15" x="0%" y="0%" width="100%" height="100%">
<feImage xlink:href="#compositing-group-46" result="source" x="0" y="0" width="918.4104" height="363.96264"/>
<feImage xlink:href="#compositing-group-47" result="destination" x="0" y="0" width="918.4104" height="363.96264"/>
<feComposite in="source" in2="destination" operator="arithmetic" k1="0" k2="1" k3="1" k4="0" color-interpolation-filters="sRGB"/>
</filter>
<filter id="filter-16" x="0%" y="0%" width="100%" height="100%">
<feImage xlink:href="#compositing-group-49" result="source" x="0" y="0" width="918.4104" height="363.96264"/>
<feImage xlink:href="#compositing-group-50" result="destination" x="0" y="0" width="918.4104" height="363.96264"/>
<feComposite in="source" in2="destination" operator="arithmetic" k1="0" k2="1" k3="1" k4="0" color-interpolation-filters="sRGB"/>
</filter>
<filter id="filter-17" x="0%" y="0%" width="100%" height="100%">
<feImage xlink:href="#compositing-group-52" result="source" x="0" y="0" width="918.4104" height="363.96264"/>
<feImage xlink:href="#compositing-group-53" result="destination" x="0" y="0" width="918.4104" height="363.96264"/>
<feComposite in="source" in2="destination" operator="arithmetic" k1="0" k2="1" k3="1" k4="0" color-interpolation-filters="sRGB"/>
</filter>
<filter id="filter-18" x="0%" y="0%" width="100%" height="100%">
<feImage xlink:href="#compositing-group-55" result="source" x="0" y="0" width="918.4104" height="363.96264"/>
<feImage xlink:href="#compositing-group-56" result="destination" x="0" y="0" width="918.4104" height="363.96264"/>
<feComposite in="source" in2="destination" operator="arithmetic" k1="0" k2="1" k3="1" k4="0" color-interpolation-filters="sRGB"/>
</filter>
<filter id="filter-19" x="0%" y="0%" width="100%" height="100%">
<feImage xlink:href="#compositing-group-58" result="source" x="0" y="0" width="918.4104" height="363.96264"/>
<feImage xlink:href="#compositing-group-59" result="destination" x="0" y="0" width="918.4104" height="363.96264"/>
<feComposite in="source" in2="destination" operator="arithmetic" k1="0" k2="1" k3="1" k4="0" color-interpolation-filters="sRGB"/>
</filter>
<filter id="filter-20" x="0%" y="0%" width="100%" height="100%">
<feImage xlink:href="#compositing-group-61" result="source" x="0" y="0" width="918.4104" height="363.96264"/>
<feImage xlink:href="#compositing-group-62" result="destination" x="0" y="0" width="918.4104" height="363.96264"/>
<feComposite in="source" in2="destination" operator="arithmetic" k1="0" k2="1" k3="1" k4="0" color-interpolation-filters="sRGB"/>
</filter>
<filter id="filter-21" x="0%" y="0%" width="100%" height="100%">
<feImage xlink:href="#compositing-group-64" result="source" x="0" y="0" width="918.4104" height="363.96264"/>
<feImage xlink:href="#compositing-group-65" result="destination" x="0" y="0" width="918.4104" height="363.96264"/>
<feComposite in="source" in2="destination" operator="arithmetic" k1="0" k2="1" k3="1" k4="0" color-interpolation-filters="sRGB"/>
</filter>
<filter id="filter-22" x="0%" y="0%" width="100%" height="100%">
<feImage xlink:href="#compositing-group-67" result="source" x="0" y="0" width="918.4104" height="363.96264"/>
<feImage xlink:href="#compositing-group-68" result="destination" x="0" y="0" width="918.4104" height="363.96264"/>
<feComposite in="source" in2="destination" operator="arithmetic" k1="0" k2="1" k3="1" k4="0" color-interpolation-filters="sRGB"/>
</filter>
<filter id="filter-23" x="0%" y="0%" width="100%" height="100%">
<feImage xlink:href="#compositing-group-70" result="source" x="0" y="0" width="918.4104" height="363.96264"/>
<feImage xlink:href="#compositing-group-71" result="destination" x="0" y="0" width="918.4104" height="363.96264"/>
<feComposite in="source" in2="destination" operator="arithmetic" k1="0" k2="1" k3="1" k4="0" color-interpolation-filters="sRGB"/>
</filter>
<filter id="filter-24" x="0%" y="0%" width="100%" height="100%">
<feImage xlink:href="#compositing-group-73" result="source" x="0" y="0" width="918.4104" height="363.96264"/>
<feImage xlink:href="#compositing-group-74" result="destination" x="0" y="0" width="918.4104" height="363.96264"/>
<feComposite in="source" in2="destination" operator="arithmetic" k1="0" k2="1" k3="1" k4="0" color-interpolation-filters="sRGB"/>
</filter>
<filter id="filter-25" x="0%" y="0%" width="100%" height="100%">
<feImage xlink:href="#compositing-group-76" result="source" x="0" y="0" width="918.4104" height="363.96264"/>
<feImage xlink:href="#compositing-group-77" result="destination" x="0" y="0" width="918.4104" height="363.96264"/>
<feComposite in="source" in2="destination" operator="arithmetic" k1="0" k2="1" k3="1" k4="0" color-interpolation-filters="sRGB"/>
</filter>
<filter id="filter-26" x="0%" y="0%" width="100%" height="100%">
<feImage xlink:href="#compositing-group-79" result="source" x="0" y="0" width="918.4104" height="363.96264"/>
<feImage xlink:href="#compositing-group-80" result="destination" x="0" y="0" width="918.4104" height="363.96264"/>
<feComposite in="source" in2="destination" operator="arithmetic" k1="0" k2="1" k3="1" k4="0" color-interpolation-filters="sRGB"/>
</filter>
<filter id="filter-27" x="0%" y="0%" width="100%" height="100%">
<feImage xlink:href="#compositing-group-82" result="source" x="0" y="0" width="918.4104" height="363.96264"/>
<feImage xlink:href="#compositing-group-83" result="destination" x="0" y="0" width="918.4104" height="363.96264"/>
<feComposite in="source" in2="destination" operator="arithmetic" k1="0" k2="1" k3="1" k4="0" color-interpolation-filters="sRGB"/>
</filter>
<filter id="filter-28" x="0%" y="0%" width="100%" height="100%">
<feImage xlink:href="#compositing-group-85" result="source" x="0" y="0" width="918.4104" height="363.96264"/>
<feImage xlink:href="#compositing-group-86" result="destination" x="0" y="0" width="918.4104" height="363.96264"/>
<feComposite in="source" in2="destination" operator="arithmetic" k1="0" k2="1" k3="1" k4="0" color-interpolation-filters="sRGB"/>
</filter>
<filter id="filter-29" x="0%" y="0%" width="100%" height="100%">
<feImage xlink:href="#compositing-group-88" result="source" x="0" y="0" width="918.4104" height="363.96264"/>
<feImage xlink:href="#compositing-group-89" result="destination" x="0" y="0" width="918.4104" height="363.96264"/>
<feComposite in="source" in2="destination" operator="arithmetic" k1="0" k2="1" k3="1" k4="0" color-interpolation-filters="sRGB"/>
</filter>
<filter id="filter-30" x="0%" y="0%" width="100%" height="100%">
<feImage xlink:href="#compositing-group-91" result="source" x="0" y="0" width="918.4104" height="363.96264"/>
<feImage xlink:href="#compositing-group-92" result="destination" x="0" y="0" width="918.4104" height="363.96264"/>
<feComposite in="source" in2="destination" operator="arithmetic" k1="0" k2="1" k3="1" k4="0" color-interpolation-filters="sRGB"/>
</filter>
<filter id="filter-31" x="0%" y="0%" width="100%" height="100%">
<feImage xlink:href="#compositing-group-94" result="source" x="0" y="0" width="918.4104" height="363.96264"/>
<feImage xlink:href="#compositing-group-95" result="destination" x="0" y="0" width="918.4104" height="363.96264"/>
<feComposite in="source" in2="destination" operator="arithmetic" k1="0" k2="1" k3="1" k4="0" color-interpolation-filters="sRGB"/>
</filter>
<filter id="filter-32" x="0%" y="0%" width="100%" height="100%">
<feImage xlink:href="#compositing-group-97" result="source" x="0" y="0" width="918.4104" height="363.96264"/>
<feImage xlink:href="#compositing-group-98" result="destination" x="0" y="0" width="918.4104" height="363.96264"/>
<feComposite in="source" in2="destination" operator="arithmetic" k1="0" k2="1" k3="1" k4="0" color-interpolation-filters="sRGB"/>
</filter>
<filter id="filter-33" x="0%" y="0%" width="100%" height="100%">
<feImage xlink:href="#compositing-group-100" result="source" x="0" y="0" width="918.4104" height="363.96264"/>
<feImage xlink:href="#compositing-group-101" result="destination" x="0" y="0" width="918.4104" height="363.96264"/>
<feComposite in="source" in2="destination" operator="arithmetic" k1="0" k2="1" k3="1" k4="0" color-interpolation-filters="sRGB"/>
</filter>
<g id="compositing-group-0" transform="translate(76.5342, 30.33022)">
<rect x="-76.5342" y="-30.33022" width="918.4104" height="363.96264" fill="rgb(0%, 0%, 0%)" fill-opacity="0"/>
<path fill="none" stroke-width="1.818475" stroke-linecap="round" stroke-linejoin="round" stroke="rgb(100%, 100%, 100%)" stroke-opacity="1" stroke-miterlimit="10" d="M 299.753906 152.835938 L 299.753906 173.066406 L 318.007812 173.066406 L 318.007812 152.835938 L 299.753906 152.835938 "/>
</g>
<mask id="mask-0">
<use xlink:href="#compositing-group-0"/>
</mask>
<mask id="mask-1">
<use xlink:href="#compositing-group-0" filter="url(#filter-remove-color-and-invert-alpha)"/>
</mask>
<g id="compositing-group-1" mask="url(#mask-0)">
<g transform="translate(76.5342, 30.33022)">
<rect x="-76.5342" y="-30.33022" width="918.4104" height="363.96264" fill="rgb(0%, 50.196078%, 0%)" fill-opacity="1"/>
</g>
</g>
<g id="compositing-group-2" mask="url(#mask-1)">
<g transform="translate(76.5342, 30.33022)">
<rect x="-76.5342" y="-30.33022" width="918.4104" height="363.96264" fill="rgb(100%, 100%, 100%)" fill-opacity="1"/>
</g>
</g>
<g id="compositing-group-3" transform="translate(76.5342, 30.33022)">
<rect x="-76.5342" y="-30.33022" width="918.4104" height="363.96264" fill="rgb(0%, 0%, 0%)" fill-opacity="0"/>
<path fill="none" stroke-width="2.367591" stroke-linecap="round" stroke-linejoin="round" stroke="rgb(100%, 100%, 100%)" stroke-opacity="1" stroke-miterlimit="10" d="M 296.628906 122.574219 L 296.628906 148.914062 L 320.394531 148.914062 L 320.394531 122.574219 L 296.628906 122.574219 "/>
</g>
<mask id="mask-2">
<use xlink:href="#compositing-group-3"/>
</mask>
<mask id="mask-3">
<use xlink:href="#compositing-group-3" filter="url(#filter-remove-color-and-invert-alpha)"/>
</mask>
<g id="compositing-group-4" mask="url(#mask-2)">
<g transform="translate(76.5342, 30.33022)">
<rect x="-76.5342" y="-30.33022" width="918.4104" height="363.96264" fill="rgb(0%, 50.196078%, 0%)" fill-opacity="1"/>
</g>
</g>
<g id="compositing-group-5" mask="url(#mask-3)">
<g transform="translate(76.5342, 30.33022)">
<g filter="url(#filter-0)" transform="translate(-76.5342, -30.33022)">
<rect x="0" y="0" width="918.4104" height="363.96264" fill="rgb(0%, 0%, 0%)" fill-opacity="1"/>
</g>
</g>
</g>
<g id="compositing-group-6" transform="translate(76.5342, 30.33022)">
<rect x="-76.5342" y="-30.33022" width="918.4104" height="363.96264" fill="rgb(0%, 0%, 0%)" fill-opacity="0"/>
<path fill="none" stroke-width="2.847782" stroke-linecap="round" stroke-linejoin="round" stroke="rgb(100%, 100%, 100%)" stroke-opacity="1" stroke-miterlimit="10" d="M 399.632812 54.714844 L 399.542969 57.183594 L 399.28125 59.636719 L 398.847656 62.0625 L 398.242188 64.453125 L 397.472656 66.792969 L 396.535156 69.070312 L 395.441406 71.273438 L 394.195312 73.390625 L 392.804688 75.414062 L 391.273438 77.328125 L 389.613281 79.128906 L 387.832031 80.800781 L 385.9375 82.34375 L 383.9375 83.742188 L 381.847656 84.992188 L 379.671875 86.089844 L 377.429688 87.027344 L 375.125 87.800781 L 372.773438 88.40625 L 370.386719 88.84375 L 367.972656 89.105469 L 365.546875 89.191406 L 363.125 89.105469 L 360.710938 88.84375 L 358.324219 88.40625 L 355.972656 87.800781 L 353.667969 87.027344 L 351.421875 86.089844 L 349.25 84.992188 L 347.160156 83.742188 L 345.160156 82.34375 L 343.265625 80.800781 L 341.484375 79.128906 L 339.820312 77.328125 L 338.292969 75.414062 L 336.898438 73.390625 L 335.65625 71.273438 L 334.5625 69.070312 L 333.625 66.792969 L 332.855469 64.453125 L 332.25 62.0625 L 331.8125 59.636719 L 331.554688 57.183594 L 331.464844 54.714844 L 331.554688 52.25 L 331.8125 49.796875 L 332.25 47.367188 L 332.855469 44.976562 L 333.625 42.636719 L 334.5625 40.359375 L 335.65625 38.15625 L 336.898438 36.039062 L 338.292969 34.015625 L 339.820312 32.101562 L 341.484375 30.300781 L 343.265625 28.628906 L 345.160156 27.089844 L 347.160156 25.6875 L 349.25 24.4375 L 351.421875 23.339844 L 353.667969 22.402344 L 355.972656 21.628906 L 358.324219 21.023438 L 360.710938 20.589844 L 363.125 20.328125 L 365.546875 20.238281 L 367.972656 20.328125 L 370.386719 20.589844 L 372.773438 21.023438 L 375.125 21.628906 L 377.429688 22.402344 L 379.671875 23.339844 L 381.847656 24.4375 L 383.9375 25.6875 L 385.9375 27.089844 L 387.832031 28.628906 L 389.613281 30.300781 L 391.273438 32.101562 L 392.804688 34.015625 L 394.195312 36.039062 L 395.441406 38.15625 L 396.535156 40.359375 L 397.472656 42.636719 L 398.242188 44.976562 L 398.847656 47.367188 L 399.28125 49.796875 L 399.542969 52.25 L 399.632812 54.714844 "/>
</g>
<mask id="mask-4">
<use xlink:href="#compositing-group-6"/>
</mask>
<mask id="mask-5">
<use xlink:href="#compositing-group-6" filter="url(#filter-remove-color-and-invert-alpha)"/>
</mask>
<g id="compositing-group-7" mask="url(#mask-4)">
<g transform="translate(76.5342, 30.33022)">
<rect x="-76.5342" y="-30.33022" width="918.4104" height="363.96264" fill="rgb(0%, 0%, 0%)" fill-opacity="1"/>
</g>
</g>
<g id="compositing-group-8" mask="url(#mask-5)">
<g transform="translate(76.5342, 30.33022)">
<g filter="url(#filter-1)" transform="translate(-76.5342, -30.33022)">
<rect x="0" y="0" width="918.4104" height="363.96264" fill="rgb(0%, 0%, 0%)" fill-opacity="1"/>
</g>
</g>
</g>
<g id="compositing-group-9" transform="translate(76.5342, 30.33022)">
<rect x="-76.5342" y="-30.33022" width="918.4104" height="363.96264" fill="rgb(0%, 0%, 0%)" fill-opacity="0"/>
<path fill="none" stroke-width="2.847782" stroke-linecap="round" stroke-linejoin="round" stroke="rgb(100%, 100%, 100%)" stroke-opacity="1" stroke-miterlimit="10" d="M 342.496094 148.265625 L 342.410156 150.734375 L 342.148438 153.1875 L 341.714844 155.617188 L 341.109375 158.007812 L 340.335938 160.34375 L 339.402344 162.621094 L 338.308594 164.828125 L 337.0625 166.945312 L 335.671875 168.964844 L 334.140625 170.882812 L 332.480469 172.679688 L 330.695312 174.355469 L 328.800781 175.894531 L 326.804688 177.292969 L 324.710938 178.546875 L 322.539062 179.644531 L 320.292969 180.582031 L 317.992188 181.355469 L 315.636719 181.960938 L 313.25 182.394531 L 310.839844 182.65625 L 308.414062 182.742188 L 305.988281 182.65625 L 303.578125 182.394531 L 301.1875 181.960938 L 298.835938 181.355469 L 296.53125 180.582031 L 294.289062 179.644531 L 292.117188 178.546875 L 290.023438 177.292969 L 288.027344 175.894531 L 286.128906 174.355469 L 284.347656 172.679688 L 282.6875 170.882812 L 281.15625 168.964844 L 279.765625 166.945312 L 278.519531 164.828125 L 277.425781 162.621094 L 276.492188 160.34375 L 275.71875 158.007812 L 275.113281 155.617188 L 274.679688 153.1875 L 274.417969 150.734375 L 274.332031 148.265625 L 274.417969 145.800781 L 274.679688 143.347656 L 275.113281 140.917969 L 275.71875 138.527344 L 276.492188 136.1875 L 277.425781 133.910156 L 278.519531 131.707031 L 279.765625 129.589844 L 281.15625 127.570312 L 282.6875 125.652344 L 284.347656 123.855469 L 286.128906 122.179688 L 288.027344 120.640625 L 290.023438 119.242188 L 292.117188 117.988281 L 294.289062 116.890625 L 296.53125 115.953125 L 298.835938 115.179688 L 301.1875 114.574219 L 303.578125 114.140625 L 305.988281 113.878906 L 308.414062 113.792969 L 310.839844 113.878906 L 313.25 114.140625 L 315.636719 114.574219 L 317.992188 115.179688 L 320.292969 115.953125 L 322.539062 116.890625 L 324.710938 117.988281 L 326.804688 119.242188 L 328.800781 120.640625 L 330.695312 122.179688 L 332.480469 123.855469 L 334.140625 125.652344 L 335.671875 127.570312 L 337.0625 129.589844 L 338.308594 131.707031 L 339.402344 133.910156 L 340.335938 136.1875 L 341.109375 138.527344 L 341.714844 140.917969 L 342.148438 143.347656 L 342.410156 145.800781 L 342.496094 148.265625 "/>
</g>
<mask id="mask-6">
<use xlink:href="#compositing-group-9"/>
</mask>
<mask id="mask-7">
<use xlink:href="#compositing-group-9" filter="url(#filter-remove-color-and-invert-alpha)"/>
</mask>
<g id="compositing-group-10" mask="url(#mask-6)">
<g transform="translate(76.5342, 30.33022)">
<rect x="-76.5342" y="-30.33022" width="918.4104" height="363.96264" fill="rgb(0%, 0%, 0%)" fill-opacity="1"/>
</g>
</g>
<g id="compositing-group-11" mask="url(#mask-7)">
<g transform="translate(76.5342, 30.33022)">
<g filter="url(#filter-2)" transform="translate(-76.5342, -30.33022)">
<rect x="0" y="0" width="918.4104" height="363.96264" fill="rgb(0%, 0%, 0%)" fill-opacity="1"/>
</g>
</g>
</g>
<g id="compositing-group-12" transform="translate(76.5342, 30.33022)">
<rect x="-76.5342" y="-30.33022" width="918.4104" height="363.96264" fill="rgb(0%, 0%, 0%)" fill-opacity="0"/>
<path fill="none" stroke-width="2.847782" stroke-linecap="round" stroke-linejoin="round" stroke="rgb(100%, 100%, 100%)" stroke-opacity="1" stroke-miterlimit="10" d="M 455.914062 146.5625 L 455.828125 149.027344 L 455.566406 151.480469 L 455.132812 153.910156 L 454.527344 156.300781 L 453.753906 158.640625 L 452.820312 160.917969 L 451.726562 163.121094 L 450.480469 165.238281 L 449.089844 167.261719 L 447.558594 169.175781 L 445.898438 170.972656 L 444.117188 172.648438 L 442.21875 174.1875 L 440.222656 175.589844 L 438.132812 176.839844 L 435.957031 177.9375 L 433.714844 178.875 L 431.410156 179.648438 L 429.058594 180.253906 L 426.667969 180.6875 L 424.257812 180.949219 L 421.832031 181.039062 L 419.410156 180.949219 L 416.996094 180.6875 L 414.609375 180.253906 L 412.257812 179.648438 L 409.953125 178.875 L 407.707031 177.9375 L 405.535156 176.839844 L 403.445312 175.589844 L 401.445312 174.1875 L 399.550781 172.648438 L 397.765625 170.972656 L 396.105469 169.175781 L 394.578125 167.261719 L 393.183594 165.238281 L 391.9375 163.121094 L 390.84375 160.917969 L 389.910156 158.640625 L 389.136719 156.300781 L 388.535156 153.910156 L 388.097656 151.480469 L 387.835938 149.027344 L 387.75 146.5625 L 387.835938 144.09375 L 388.097656 141.640625 L 388.535156 139.214844 L 389.136719 136.824219 L 389.910156 134.484375 L 390.84375 132.207031 L 391.9375 130.003906 L 393.183594 127.886719 L 394.578125 125.863281 L 396.105469 123.949219 L 397.765625 122.148438 L 399.550781 120.476562 L 401.445312 118.933594 L 403.445312 117.535156 L 405.535156 116.285156 L 407.707031 115.1875 L 409.953125 114.25 L 412.257812 113.476562 L 414.609375 112.871094 L 416.996094 112.433594 L 419.410156 112.171875 L 421.832031 112.085938 L 424.257812 112.171875 L 426.667969 112.433594 L 429.058594 112.871094 L 431.410156 113.476562 L 433.714844 114.25 L 435.957031 115.1875 L 438.132812 116.285156 L 440.222656 117.535156 L 442.21875 118.933594 L 444.117188 120.476562 L 445.898438 122.148438 L 447.558594 123.949219 L 449.089844 125.863281 L 450.480469 127.886719 L 451.726562 130.003906 L 452.820312 132.207031 L 453.753906 134.484375 L 454.527344 136.824219 L 455.132812 139.214844 L 455.566406 141.640625 L 455.828125 144.09375 L 455.914062 146.5625 "/>
</g>
<mask id="mask-8">
<use xlink:href="#compositing-group-12"/>
</mask>
<mask id="mask-9">
<use xlink:href="#compositing-group-12" filter="url(#filter-remove-color-and-invert-alpha)"/>
</mask>
<g id="compositing-group-13" mask="url(#mask-8)">
<g transform="translate(76.5342, 30.33022)">
<rect x="-76.5342" y="-30.33022" width="918.4104" height="363.96264" fill="rgb(0%, 0%, 0%)" fill-opacity="1"/>
</g>
</g>
<g id="compositing-group-14" mask="url(#mask-9)">
<g transform="translate(76.5342, 30.33022)">
<g filter="url(#filter-3)" transform="translate(-76.5342, -30.33022)">
<rect x="0" y="0" width="918.4104" height="363.96264" fill="rgb(0%, 0%, 0%)" fill-opacity="1"/>
</g>
</g>
</g>
<g id="compositing-group-15" transform="translate(76.5342, 30.33022)">
<rect x="-76.5342" y="-30.33022" width="918.4104" height="363.96264" fill="rgb(0%, 0%, 0%)" fill-opacity="0"/>
<path fill="none" stroke-width="2.847782" stroke-linecap="round" stroke-linejoin="round" stroke="rgb(100%, 100%, 100%)" stroke-opacity="1" stroke-miterlimit="10" d="M 291.828125 250.230469 L 291.742188 252.699219 L 291.480469 255.152344 L 291.046875 257.578125 L 290.441406 259.96875 L 289.667969 262.308594 L 288.734375 264.585938 L 287.640625 266.789062 L 286.394531 268.90625 L 285.003906 270.929688 L 283.472656 272.84375 L 281.8125 274.644531 L 280.03125 276.316406 L 278.132812 277.859375 L 276.136719 279.257812 L 274.046875 280.507812 L 271.871094 281.605469 L 269.628906 282.542969 L 267.324219 283.316406 L 264.972656 283.921875 L 262.582031 284.359375 L 260.171875 284.621094 L 257.746094 284.707031 L 255.320312 284.621094 L 252.910156 284.359375 L 250.523438 283.921875 L 248.167969 283.316406 L 245.867188 282.542969 L 243.621094 281.605469 L 241.449219 280.507812 L 239.359375 279.257812 L 237.359375 277.859375 L 235.464844 276.316406 L 233.679688 274.644531 L 232.019531 272.84375 L 230.492188 270.929688 L 229.097656 268.90625 L 227.851562 266.789062 L 226.757812 264.585938 L 225.824219 262.308594 L 225.050781 259.96875 L 224.449219 257.578125 L 224.011719 255.152344 L 223.75 252.699219 L 223.664062 250.230469 L 223.75 247.765625 L 224.011719 245.3125 L 224.449219 242.882812 L 225.050781 240.492188 L 225.824219 238.152344 L 226.757812 235.875 L 227.851562 233.671875 L 229.097656 231.554688 L 230.492188 229.53125 L 232.019531 227.617188 L 233.679688 225.816406 L 235.464844 224.144531 L 237.359375 222.605469 L 239.359375 221.203125 L 241.449219 219.953125 L 243.621094 218.855469 L 245.867188 217.917969 L 248.167969 217.144531 L 250.523438 216.539062 L 252.910156 216.105469 L 255.320312 215.84375 L 257.746094 215.753906 L 260.171875 215.84375 L 262.582031 216.105469 L 264.972656 216.539062 L 267.324219 217.144531 L 269.628906 217.917969 L 271.871094 218.855469 L 274.046875 219.953125 L 276.136719 221.203125 L 278.132812 222.605469 L 280.03125 224.144531 L 281.8125 225.816406 L 283.472656 227.617188 L 285.003906 229.53125 L 286.394531 231.554688 L 287.640625 233.671875 L 288.734375 235.875 L 289.667969 238.152344 L 290.441406 240.492188 L 291.046875 242.882812 L 291.480469 245.3125 L 291.742188 247.765625 L 291.828125 250.230469 "/>
</g>
<mask id="mask-10">
<use xlink:href="#compositing-group-15"/>
</mask>
<mask id="mask-11">
<use xlink:href="#compositing-group-15" filter="url(#filter-remove-color-and-invert-alpha)"/>
</mask>
<g id="compositing-group-16" mask="url(#mask-10)">
<g transform="translate(76.5342, 30.33022)">
<rect x="-76.5342" y="-30.33022" width="918.4104" height="363.96264" fill="rgb(0%, 0%, 0%)" fill-opacity="1"/>
</g>
</g>
<g id="compositing-group-17" mask="url(#mask-11)">
<g transform="translate(76.5342, 30.33022)">
<g filter="url(#filter-4)" transform="translate(-76.5342, -30.33022)">
<rect x="0" y="0" width="918.4104" height="363.96264" fill="rgb(0%, 0%, 0%)" fill-opacity="1"/>
</g>
</g>
</g>
<g id="compositing-group-18" transform="translate(76.5342, 30.33022)">
<rect x="-76.5342" y="-30.33022" width="918.4104" height="363.96264" fill="rgb(0%, 0%, 0%)" fill-opacity="0"/>
<path fill="none" stroke-width="2.847782" stroke-linecap="round" stroke-linejoin="round" stroke="rgb(100%, 100%, 100%)" stroke-opacity="1" stroke-miterlimit="10" d="M 387.308594 251.472656 L 387.21875 253.9375 L 386.957031 256.390625 L 386.523438 258.820312 L 385.917969 261.210938 L 385.148438 263.550781 L 384.210938 265.828125 L 383.117188 268.03125 L 381.875 270.148438 L 380.480469 272.167969 L 378.953125 274.085938 L 377.289062 275.882812 L 375.507812 277.558594 L 373.613281 279.097656 L 371.613281 280.5 L 369.523438 281.75 L 367.351562 282.847656 L 365.105469 283.785156 L 362.800781 284.558594 L 360.449219 285.164062 L 358.0625 285.597656 L 355.648438 285.859375 L 353.226562 285.945312 L 350.800781 285.859375 L 348.386719 285.597656 L 346 285.164062 L 343.648438 284.558594 L 341.34375 283.785156 L 339.101562 282.847656 L 336.925781 281.75 L 334.835938 280.5 L 332.835938 279.097656 L 330.941406 277.558594 L 329.160156 275.882812 L 327.5 274.085938 L 325.96875 272.167969 L 324.578125 270.148438 L 323.332031 268.03125 L 322.238281 265.828125 L 321.300781 263.550781 L 320.53125 261.210938 L 319.925781 258.820312 L 319.492188 256.390625 L 319.230469 253.9375 L 319.140625 251.472656 L 319.230469 249.003906 L 319.492188 246.550781 L 319.925781 244.121094 L 320.53125 241.734375 L 321.300781 239.394531 L 322.238281 237.117188 L 323.332031 234.914062 L 324.578125 232.792969 L 325.96875 230.773438 L 327.5 228.859375 L 329.160156 227.058594 L 330.941406 225.382812 L 332.835938 223.84375 L 334.835938 222.445312 L 336.925781 221.191406 L 339.101562 220.097656 L 341.34375 219.15625 L 343.648438 218.386719 L 346 217.777344 L 348.386719 217.34375 L 350.800781 217.082031 L 353.226562 216.996094 L 355.648438 217.082031 L 358.0625 217.34375 L 360.449219 217.777344 L 362.800781 218.386719 L 365.105469 219.15625 L 367.351562 220.097656 L 369.523438 221.191406 L 371.613281 222.445312 L 373.613281 223.84375 L 375.507812 225.382812 L 377.289062 227.058594 L 378.953125 228.859375 L 380.480469 230.773438 L 381.875 232.792969 L 383.117188 234.914062 L 384.210938 237.117188 L 385.148438 239.394531 L 385.917969 241.734375 L 386.523438 244.121094 L 386.957031 246.550781 L 387.21875 249.003906 L 387.308594 251.472656 "/>
</g>
<mask id="mask-12">
<use xlink:href="#compositing-group-18"/>
</mask>
<mask id="mask-13">
<use xlink:href="#compositing-group-18" filter="url(#filter-remove-color-and-invert-alpha)"/>
</mask>
<g id="compositing-group-19" mask="url(#mask-12)">
<g transform="translate(76.5342, 30.33022)">
<rect x="-76.5342" y="-30.33022" width="918.4104" height="363.96264" fill="rgb(0%, 0%, 0%)" fill-opacity="1"/>
</g>
</g>
<g id="compositing-group-20" mask="url(#mask-13)">
<g transform="translate(76.5342, 30.33022)">
<g filter="url(#filter-5)" transform="translate(-76.5342, -30.33022)">
<rect x="0" y="0" width="918.4104" height="363.96264" fill="rgb(0%, 0%, 0%)" fill-opacity="1"/>
</g>
</g>
</g>
<g id="compositing-group-21" transform="translate(76.5342, 30.33022)">
<rect x="-76.5342" y="-30.33022" width="918.4104" height="363.96264" fill="rgb(0%, 0%, 0%)" fill-opacity="0"/>
<path fill="none" stroke-width="1.818475" stroke-linecap="round" stroke-linejoin="round" stroke="rgb(100%, 100%, 100%)" stroke-opacity="1" stroke-miterlimit="10" d="M 356.652344 60.253906 L 356.652344 80.484375 L 374.910156 80.484375 L 374.910156 60.253906 L 356.652344 60.253906 "/>
</g>
<mask id="mask-14">
<use xlink:href="#compositing-group-21"/>
</mask>
<mask id="mask-15">
<use xlink:href="#compositing-group-21" filter="url(#filter-remove-color-and-invert-alpha)"/>
</mask>
<g id="compositing-group-22" mask="url(#mask-14)">
<g transform="translate(76.5342, 30.33022)">
<rect x="-76.5342" y="-30.33022" width="918.4104" height="363.96264" fill="rgb(0%, 50.196078%, 0%)" fill-opacity="1"/>
</g>
</g>
<g id="compositing-group-23" mask="url(#mask-15)">
<g transform="translate(76.5342, 30.33022)">
<g filter="url(#filter-6)" transform="translate(-76.5342, -30.33022)">
<rect x="0" y="0" width="918.4104" height="363.96264" fill="rgb(0%, 0%, 0%)" fill-opacity="1"/>
</g>
</g>
</g>
<g id="compositing-group-24" transform="translate(76.5342, 30.33022)">
<rect x="-76.5342" y="-30.33022" width="918.4104" height="363.96264" fill="rgb(0%, 0%, 0%)" fill-opacity="0"/>
<path fill="none" stroke-width="2.367591" stroke-linecap="round" stroke-linejoin="round" stroke="rgb(100%, 100%, 100%)" stroke-opacity="1" stroke-miterlimit="10" d="M 353.527344 29.992188 L 353.527344 56.328125 L 377.296875 56.328125 L 377.296875 29.992188 L 353.527344 29.992188 "/>
</g>
<mask id="mask-16">
<use xlink:href="#compositing-group-24"/>
</mask>
<mask id="mask-17">
<use xlink:href="#compositing-group-24" filter="url(#filter-remove-color-and-invert-alpha)"/>
</mask>
<g id="compositing-group-25" mask="url(#mask-16)">
<g transform="translate(76.5342, 30.33022)">
<rect x="-76.5342" y="-30.33022" width="918.4104" height="363.96264" fill="rgb(0%, 50.196078%, 0%)" fill-opacity="1"/>
</g>
</g>
<g id="compositing-group-26" mask="url(#mask-17)">
<g transform="translate(76.5342, 30.33022)">
<g filter="url(#filter-7)" transform="translate(-76.5342, -30.33022)">
<rect x="0" y="0" width="918.4104" height="363.96264" fill="rgb(0%, 0%, 0%)" fill-opacity="1"/>
</g>
</g>
</g>
<g id="compositing-group-27" transform="translate(76.5342, 30.33022)">
<rect x="-76.5342" y="-30.33022" width="918.4104" height="363.96264" fill="rgb(0%, 0%, 0%)" fill-opacity="0"/>
<path fill="none" stroke-width="1.818475" stroke-linecap="round" stroke-linejoin="round" stroke="rgb(100%, 100%, 100%)" stroke-opacity="1" stroke-miterlimit="10" d="M 413.472656 151.769531 L 413.472656 171.996094 L 431.726562 171.996094 L 431.726562 151.769531 L 413.472656 151.769531 "/>
</g>
<mask id="mask-18">
<use xlink:href="#compositing-group-27"/>
</mask>
<mask id="mask-19">
<use xlink:href="#compositing-group-27" filter="url(#filter-remove-color-and-invert-alpha)"/>
</mask>
<g id="compositing-group-28" mask="url(#mask-18)">
<g transform="translate(76.5342, 30.33022)">
<rect x="-76.5342" y="-30.33022" width="918.4104" height="363.96264" fill="rgb(0%, 50.196078%, 0%)" fill-opacity="1"/>
</g>
</g>
<g id="compositing-group-29" mask="url(#mask-19)">
<g transform="translate(76.5342, 30.33022)">
<g filter="url(#filter-8)" transform="translate(-76.5342, -30.33022)">
<rect x="0" y="0" width="918.4104" height="363.96264" fill="rgb(0%, 0%, 0%)" fill-opacity="1"/>
</g>
</g>
</g>
<g id="compositing-group-30" transform="translate(76.5342, 30.33022)">
<rect x="-76.5342" y="-30.33022" width="918.4104" height="363.96264" fill="rgb(0%, 0%, 0%)" fill-opacity="0"/>
<path fill="none" stroke-width="2.367591" stroke-linecap="round" stroke-linejoin="round" stroke="rgb(100%, 100%, 100%)" stroke-opacity="1" stroke-miterlimit="10" d="M 410.347656 121.507812 L 410.347656 147.84375 L 434.117188 147.84375 L 434.117188 121.507812 L 410.347656 121.507812 "/>
</g>
<mask id="mask-20">
<use xlink:href="#compositing-group-30"/>
</mask>
<mask id="mask-21">
<use xlink:href="#compositing-group-30" filter="url(#filter-remove-color-and-invert-alpha)"/>
</mask>
<g id="compositing-group-31" mask="url(#mask-20)">
<g transform="translate(76.5342, 30.33022)">
<rect x="-76.5342" y="-30.33022" width="918.4104" height="363.96264" fill="rgb(0%, 50.196078%, 0%)" fill-opacity="1"/>
</g>
</g>
<g id="compositing-group-32" mask="url(#mask-21)">
<g transform="translate(76.5342, 30.33022)">
<g filter="url(#filter-9)" transform="translate(-76.5342, -30.33022)">
<rect x="0" y="0" width="918.4104" height="363.96264" fill="rgb(0%, 0%, 0%)" fill-opacity="1"/>
</g>
</g>
</g>
<g id="compositing-group-33" transform="translate(76.5342, 30.33022)">
<rect x="-76.5342" y="-30.33022" width="918.4104" height="363.96264" fill="rgb(0%, 0%, 0%)" fill-opacity="0"/>
<path fill="none" stroke-width="1.818475" stroke-linecap="round" stroke-linejoin="round" stroke="rgb(100%, 100%, 100%)" stroke-opacity="1" stroke-miterlimit="10" d="M 344.417969 256.4375 L 344.417969 276.667969 L 362.675781 276.667969 L 362.675781 256.4375 L 344.417969 256.4375 "/>
</g>
<mask id="mask-22">
<use xlink:href="#compositing-group-33"/>
</mask>
<mask id="mask-23">
<use xlink:href="#compositing-group-33" filter="url(#filter-remove-color-and-invert-alpha)"/>
</mask>
<g id="compositing-group-34" mask="url(#mask-22)">
<g transform="translate(76.5342, 30.33022)">
<rect x="-76.5342" y="-30.33022" width="918.4104" height="363.96264" fill="rgb(0%, 50.196078%, 0%)" fill-opacity="1"/>
</g>
</g>
<g id="compositing-group-35" mask="url(#mask-23)">
<g transform="translate(76.5342, 30.33022)">
<g filter="url(#filter-10)" transform="translate(-76.5342, -30.33022)">
<rect x="0" y="0" width="918.4104" height="363.96264" fill="rgb(0%, 0%, 0%)" fill-opacity="1"/>
</g>
</g>
</g>
<g id="compositing-group-36" transform="translate(76.5342, 30.33022)">
<rect x="-76.5342" y="-30.33022" width="918.4104" height="363.96264" fill="rgb(0%, 0%, 0%)" fill-opacity="0"/>
<path fill="none" stroke-width="2.367591" stroke-linecap="round" stroke-linejoin="round" stroke="rgb(100%, 100%, 100%)" stroke-opacity="1" stroke-miterlimit="10" d="M 341.292969 226.175781 L 341.292969 252.515625 L 365.0625 252.515625 L 365.0625 226.175781 L 341.292969 226.175781 "/>
</g>
<mask id="mask-24">
<use xlink:href="#compositing-group-36"/>
</mask>
<mask id="mask-25">
<use xlink:href="#compositing-group-36" filter="url(#filter-remove-color-and-invert-alpha)"/>
</mask>
<g id="compositing-group-37" mask="url(#mask-24)">
<g transform="translate(76.5342, 30.33022)">
<rect x="-76.5342" y="-30.33022" width="918.4104" height="363.96264" fill="rgb(0%, 50.196078%, 0%)" fill-opacity="1"/>
</g>
</g>
<g id="compositing-group-38" mask="url(#mask-25)">
<g transform="translate(76.5342, 30.33022)">
<g filter="url(#filter-11)" transform="translate(-76.5342, -30.33022)">
<rect x="0" y="0" width="918.4104" height="363.96264" fill="rgb(0%, 0%, 0%)" fill-opacity="1"/>
</g>
</g>
</g>
<g id="compositing-group-39" transform="translate(76.5342, 30.33022)">
<rect x="-76.5342" y="-30.33022" width="918.4104" height="363.96264" fill="rgb(0%, 0%, 0%)" fill-opacity="0"/>
<path fill="none" stroke-width="1.818475" stroke-linecap="round" stroke-linejoin="round" stroke="rgb(100%, 100%, 100%)" stroke-opacity="1" stroke-miterlimit="10" d="M 249.066406 255.203125 L 249.066406 275.433594 L 267.320312 275.433594 L 267.320312 255.203125 L 249.066406 255.203125 "/>
</g>
<mask id="mask-26">
<use xlink:href="#compositing-group-39"/>
</mask>
<mask id="mask-27">
<use xlink:href="#compositing-group-39" filter="url(#filter-remove-color-and-invert-alpha)"/>
</mask>
<g id="compositing-group-40" mask="url(#mask-26)">
<g transform="translate(76.5342, 30.33022)">
<rect x="-76.5342" y="-30.33022" width="918.4104" height="363.96264" fill="rgb(0%, 50.196078%, 0%)" fill-opacity="1"/>
</g>
</g>
<g id="compositing-group-41" mask="url(#mask-27)">
<g transform="translate(76.5342, 30.33022)">
<g filter="url(#filter-12)" transform="translate(-76.5342, -30.33022)">
<rect x="0" y="0" width="918.4104" height="363.96264" fill="rgb(0%, 0%, 0%)" fill-opacity="1"/>
</g>
</g>
</g>
<g id="compositing-group-42" transform="translate(76.5342, 30.33022)">
<rect x="-76.5342" y="-30.33022" width="918.4104" height="363.96264" fill="rgb(0%, 0%, 0%)" fill-opacity="0"/>
<path fill="none" stroke-width="2.367591" stroke-linecap="round" stroke-linejoin="round" stroke="rgb(100%, 100%, 100%)" stroke-opacity="1" stroke-miterlimit="10" d="M 245.941406 224.941406 L 245.941406 251.28125 L 269.710938 251.28125 L 269.710938 224.941406 L 245.941406 224.941406 "/>
</g>
<mask id="mask-28">
<use xlink:href="#compositing-group-42"/>
</mask>
<mask id="mask-29">
<use xlink:href="#compositing-group-42" filter="url(#filter-remove-color-and-invert-alpha)"/>
</mask>
<g id="compositing-group-43" mask="url(#mask-28)">
<g transform="translate(76.5342, 30.33022)">
<rect x="-76.5342" y="-30.33022" width="918.4104" height="363.96264" fill="rgb(0%, 50.196078%, 0%)" fill-opacity="1"/>
</g>
</g>
<g id="compositing-group-44" mask="url(#mask-29)">
<g transform="translate(76.5342, 30.33022)">
<g filter="url(#filter-13)" transform="translate(-76.5342, -30.33022)">
<rect x="0" y="0" width="918.4104" height="363.96264" fill="rgb(0%, 0%, 0%)" fill-opacity="1"/>
</g>
</g>
</g>
<g id="compositing-group-45" transform="translate(76.5342, 30.33022)">
<rect x="-76.5342" y="-30.33022" width="918.4104" height="363.96264" fill="rgb(0%, 0%, 0%)" fill-opacity="0"/>
<path fill="none" stroke-width="2.26" stroke-linecap="round" stroke-linejoin="round" stroke="rgb(100%, 100%, 100%)" stroke-opacity="1" stroke-miterlimit="10" d="M 361.855469 37.011719 L 367.484375 37.011719 L 361.171875 37.011719 L 361.171875 39.929688 L 361.546875 39.929688 L 361.546875 43.453125 L 362.550781 43.453125 L 362.550781 42.902344 L 363.425781 42.902344 L 363.425781 42.386719 L 364.269531 42.386719 L 364.269531 42.023438 L 366.871094 42.023438 L 366.871094 42.429688 L 367.414062 42.429688 L 367.414062 43.003906 L 367.96875 43.003906 L 367.96875 43.535156 L 368.398438 43.535156 L 368.398438 44.097656 L 368.960938 44.097656 L 368.960938 44.589844 L 369.472656 44.589844 L 369.472656 45.015625 L 369.996094 45.015625 L 369.996094 45.566406 L 370.46875 45.566406 L 370.46875 47.871094 L 370.078125 47.871094 L 370.078125 48.429688 L 369.542969 48.429688 L 369.542969 48.9375 L 368.605469 48.9375 L 368.605469 49.320312 L 364.792969 49.320312 L 364.792969 48.996094 L 363.4375 48.996094 "/>
</g>
<mask id="mask-30">
<use xlink:href="#compositing-group-45"/>
</mask>
<mask id="mask-31">
<use xlink:href="#compositing-group-45" filter="url(#filter-remove-color-and-invert-alpha)"/>
</mask>
<g id="compositing-group-46" mask="url(#mask-30)">
<g transform="translate(76.5342, 30.33022)">
<rect x="-76.5342" y="-30.33022" width="918.4104" height="363.96264" fill="rgb(0%, 0%, 0%)" fill-opacity="1"/>
</g>
</g>
<g id="compositing-group-47" mask="url(#mask-31)">
<g transform="translate(76.5342, 30.33022)">
<g filter="url(#filter-14)" transform="translate(-76.5342, -30.33022)">
<rect x="0" y="0" width="918.4104" height="363.96264" fill="rgb(0%, 0%, 0%)" fill-opacity="1"/>
</g>
</g>
</g>
<g id="compositing-group-48" transform="translate(76.5342, 30.33022)">
<rect x="-76.5342" y="-30.33022" width="918.4104" height="363.96264" fill="rgb(0%, 0%, 0%)" fill-opacity="0"/>
<path fill="none" stroke-width="2.26" stroke-linecap="round" stroke-linejoin="round" stroke="rgb(100%, 100%, 100%)" stroke-opacity="1" stroke-miterlimit="10" d="M 422.863281 129.496094 L 421.582031 129.496094 L 421.582031 128.945312 L 420.210938 128.945312 L 419.914062 129.207031 L 419.589844 129.207031 L 419.589844 129.648438 L 419.054688 129.648438 L 419.054688 130.21875 L 418.484375 130.21875 L 418.484375 130.789062 L 418.070312 131.199219 L 417.644531 131.628906 L 417.644531 133.054688 L 417.957031 133.054688 L 417.957031 133.90625 L 419.6875 133.90625 L 419.6875 134.273438 L 421.796875 134.273438 L 422.09375 133.960938 L 422.371094 133.4375 L 422.371094 132.917969 L 422.816406 132.917969 L 422.816406 130.371094 L 423.359375 130.371094 L 423.359375 132.746094 L 423.933594 132.746094 L 423.933594 139.613281 L 424.449219 139.613281 L 424.449219 140.914062 "/>
</g>
<mask id="mask-32">
<use xlink:href="#compositing-group-48"/>
</mask>
<mask id="mask-33">
<use xlink:href="#compositing-group-48" filter="url(#filter-remove-color-and-invert-alpha)"/>
</mask>
<g id="compositing-group-49" mask="url(#mask-32)">
<g transform="translate(76.5342, 30.33022)">
<rect x="-76.5342" y="-30.33022" width="918.4104" height="363.96264" fill="rgb(0%, 0%, 0%)" fill-opacity="1"/>
</g>
</g>
<g id="compositing-group-50" mask="url(#mask-33)">
<g transform="translate(76.5342, 30.33022)">
<g filter="url(#filter-15)" transform="translate(-76.5342, -30.33022)">
<rect x="0" y="0" width="918.4104" height="363.96264" fill="rgb(0%, 0%, 0%)" fill-opacity="1"/>
</g>
</g>
</g>
<g id="compositing-group-51" transform="translate(76.5342, 30.33022)">
<rect x="-76.5342" y="-30.33022" width="918.4104" height="363.96264" fill="rgb(0%, 0%, 0%)" fill-opacity="0"/>
<path fill="none" stroke-width="2.26" stroke-linecap="round" stroke-linejoin="round" stroke="rgb(100%, 100%, 100%)" stroke-opacity="1" stroke-miterlimit="10" d="M 303.816406 129.90625 L 307.109375 129.90625 L 307.109375 130.277344 L 308.597656 130.277344 L 308.597656 130.617188 L 309.105469 130.617188 L 309.105469 131.117188 L 309.550781 131.117188 L 309.550781 131.6875 L 310.097656 131.6875 L 310.097656 133.34375 L 309.570312 133.625 L 308.707031 133.625 L 308.707031 134.089844 L 307.757812 134.089844 L 307.757812 134.589844 L 306.871094 134.589844 L 306.574219 134.972656 L 306.25 134.972656 L 306.972656 134.515625 L 310.925781 134.515625 L 310.925781 135.070312 L 311.476562 135.070312 L 311.476562 135.605469 L 312.007812 135.605469 L 312.007812 137.617188 L 311.660156 137.871094 L 311.660156 138.328125 L 310.578125 138.328125 L 310.578125 138.871094 L 310.035156 138.871094 L 310.035156 139.292969 L 309.007812 139.292969 L 309.007812 139.65625 L 307.398438 139.65625 L 306.90625 140.148438 L 305.113281 140.148438 L 305.113281 139.765625 L 303.628906 139.765625 "/>
</g>
<mask id="mask-34">
<use xlink:href="#compositing-group-51"/>
</mask>
<mask id="mask-35">
<use xlink:href="#compositing-group-51" filter="url(#filter-remove-color-and-invert-alpha)"/>
</mask>
<g id="compositing-group-52" mask="url(#mask-34)">
<g transform="translate(76.5342, 30.33022)">
<rect x="-76.5342" y="-30.33022" width="918.4104" height="363.96264" fill="rgb(0%, 0%, 0%)" fill-opacity="1"/>
</g>
</g>
<g id="compositing-group-53" mask="url(#mask-35)">
<g transform="translate(76.5342, 30.33022)">
<g filter="url(#filter-16)" transform="translate(-76.5342, -30.33022)">
<rect x="0" y="0" width="918.4104" height="363.96264" fill="rgb(0%, 0%, 0%)" fill-opacity="1"/>
</g>
</g>
</g>
<g id="compositing-group-54" transform="translate(76.5342, 30.33022)">
<rect x="-76.5342" y="-30.33022" width="918.4104" height="363.96264" fill="rgb(0%, 0%, 0%)" fill-opacity="0"/>
<path fill="none" stroke-width="2.26" stroke-linecap="round" stroke-linejoin="round" stroke="rgb(100%, 100%, 100%)" stroke-opacity="1" stroke-miterlimit="10" d="M 254.78125 233.691406 L 255.289062 233.691406 L 255.636719 233.34375 L 256.445312 233.34375 L 256.738281 233.003906 L 257.144531 233.003906 L 257.144531 232.679688 L 258.1875 232.679688 L 258.449219 232.90625 L 258.449219 242.363281 L 259.015625 242.363281 L 259.015625 245.027344 "/>
</g>
<mask id="mask-36">
<use xlink:href="#compositing-group-54"/>
</mask>
<mask id="mask-37">
<use xlink:href="#compositing-group-54" filter="url(#filter-remove-color-and-invert-alpha)"/>
</mask>
<g id="compositing-group-55" mask="url(#mask-36)">
<g transform="translate(76.5342, 30.33022)">
<rect x="-76.5342" y="-30.33022" width="918.4104" height="363.96264" fill="rgb(0%, 0%, 0%)" fill-opacity="1"/>
</g>
</g>
<g id="compositing-group-56" mask="url(#mask-37)">
<g transform="translate(76.5342, 30.33022)">
<g filter="url(#filter-17)" transform="translate(-76.5342, -30.33022)">
<rect x="0" y="0" width="918.4104" height="363.96264" fill="rgb(0%, 0%, 0%)" fill-opacity="1"/>
</g>
</g>
</g>
<g id="compositing-group-57" transform="translate(76.5342, 30.33022)">
<rect x="-76.5342" y="-30.33022" width="918.4104" height="363.96264" fill="rgb(0%, 0%, 0%)" fill-opacity="0"/>
<path fill="none" stroke-width="2.26" stroke-linecap="round" stroke-linejoin="round" stroke="rgb(100%, 100%, 100%)" stroke-opacity="1" stroke-miterlimit="10" d="M 348.855469 233.859375 L 348.855469 238.699219 L 348.472656 238.699219 L 348.472656 239.214844 L 355.027344 239.214844 L 355.027344 236.046875 L 354.613281 235.804688 L 354.613281 233.96875 L 354.613281 241.980469 L 355.160156 241.980469 L 355.160156 245.417969 "/>
</g>
<mask id="mask-38">
<use xlink:href="#compositing-group-57"/>
</mask>
<mask id="mask-39">
<use xlink:href="#compositing-group-57" filter="url(#filter-remove-color-and-invert-alpha)"/>
</mask>
<g id="compositing-group-58" mask="url(#mask-38)">
<g transform="translate(76.5342, 30.33022)">
<rect x="-76.5342" y="-30.33022" width="918.4104" height="363.96264" fill="rgb(0%, 0%, 0%)" fill-opacity="1"/>
</g>
</g>
<g id="compositing-group-59" mask="url(#mask-39)">
<g transform="translate(76.5342, 30.33022)">
<g filter="url(#filter-18)" transform="translate(-76.5342, -30.33022)">
<rect x="0" y="0" width="918.4104" height="363.96264" fill="rgb(0%, 0%, 0%)" fill-opacity="1"/>
</g>
</g>
</g>
<g id="compositing-group-60" transform="translate(76.5342, 30.33022)">
<rect x="-76.5342" y="-30.33022" width="918.4104" height="363.96264" fill="rgb(0%, 0%, 0%)" fill-opacity="0"/>
<path fill="none" stroke-width="2.26" stroke-linecap="round" stroke-linejoin="round" stroke="rgb(100%, 100%, 100%)" stroke-opacity="1" stroke-miterlimit="10" d="M 364.835938 69.382812 L 364.253906 69.382812 L 363.949219 69.6875 L 363.550781 69.6875 L 363.550781 70.226562 L 362.980469 70.226562 L 362.980469 70.722656 L 361.996094 70.722656 L 361.996094 71.777344 L 361.558594 71.777344 L 361.558594 74.050781 L 363.667969 74.050781 L 363.667969 74.507812 L 364.886719 74.507812 L 365.320312 74.210938 L 365.753906 73.773438 L 366.269531 73.527344 L 366.269531 71.710938 L 365.964844 71.429688 L 365.964844 70.886719 L 366.441406 70.886719 L 366.984375 71.183594 L 366.984375 73.1875 L 367.277344 73.457031 L 367.640625 73.816406 L 367.640625 74.210938 L 368.257812 74.210938 L 368.257812 74.589844 L 369.492188 74.589844 "/>
</g>
<mask id="mask-40">
<use xlink:href="#compositing-group-60"/>
</mask>
<mask id="mask-41">
<use xlink:href="#compositing-group-60" filter="url(#filter-remove-color-and-invert-alpha)"/>
</mask>
<g id="compositing-group-61" mask="url(#mask-40)">
<g transform="translate(76.5342, 30.33022)">
<rect x="-76.5342" y="-30.33022" width="918.4104" height="363.96264" fill="rgb(0%, 0%, 0%)" fill-opacity="1"/>
</g>
</g>
<g id="compositing-group-62" mask="url(#mask-41)">
<g transform="translate(76.5342, 30.33022)">
<g filter="url(#filter-19)" transform="translate(-76.5342, -30.33022)">
<rect x="0" y="0" width="918.4104" height="363.96264" fill="rgb(0%, 0%, 0%)" fill-opacity="1"/>
</g>
</g>
</g>
<g id="compositing-group-63" transform="translate(76.5342, 30.33022)">
<rect x="-76.5342" y="-30.33022" width="918.4104" height="363.96264" fill="rgb(0%, 0%, 0%)" fill-opacity="0"/>
<path fill="none" stroke-width="2.26" stroke-linecap="round" stroke-linejoin="round" stroke="rgb(100%, 100%, 100%)" stroke-opacity="1" stroke-miterlimit="10" d="M 419.539062 158.984375 L 420.0625 158.984375 L 420.0625 158.441406 L 423.34375 158.441406 L 423.8125 158.914062 L 424.582031 158.914062 L 424.582031 159.585938 L 424.015625 160.15625 L 424.015625 160.726562 L 423.445312 160.726562 L 423.445312 161.296875 L 422.875 161.296875 L 422.875 162.398438 L 422.503906 162.398438 L 422.503906 162.800781 L 421.945312 162.800781 L 421.363281 163.382812 L 421.363281 163.933594 L 420.773438 163.933594 L 420.773438 164.523438 L 420.203125 164.523438 L 420.203125 165.96875 L 419.65625 165.96875 L 419.65625 166.9375 L 420.296875 166.9375 L 420.296875 166.386719 L 422.65625 166.386719 L 422.65625 166.054688 L 423.183594 166.054688 "/>
</g>
<mask id="mask-42">
<use xlink:href="#compositing-group-63"/>
</mask>
<mask id="mask-43">
<use xlink:href="#compositing-group-63" filter="url(#filter-remove-color-and-invert-alpha)"/>
</mask>
<g id="compositing-group-64" mask="url(#mask-42)">
<g transform="translate(76.5342, 30.33022)">
<rect x="-76.5342" y="-30.33022" width="918.4104" height="363.96264" fill="rgb(0%, 0%, 0%)" fill-opacity="1"/>
</g>
</g>
<g id="compositing-group-65" mask="url(#mask-43)">
<g transform="translate(76.5342, 30.33022)">
<g filter="url(#filter-20)" transform="translate(-76.5342, -30.33022)">
<rect x="0" y="0" width="918.4104" height="363.96264" fill="rgb(0%, 0%, 0%)" fill-opacity="1"/>
</g>
</g>
</g>
<g id="compositing-group-66" transform="translate(76.5342, 30.33022)">
<rect x="-76.5342" y="-30.33022" width="918.4104" height="363.96264" fill="rgb(0%, 0%, 0%)" fill-opacity="0"/>
<path fill="none" stroke-width="2.26" stroke-linecap="round" stroke-linejoin="round" stroke="rgb(100%, 100%, 100%)" stroke-opacity="1" stroke-miterlimit="10" d="M 419.9375 163.8125 L 421.683594 163.8125 L 421.683594 163.253906 L 423.25 163.253906 "/>
</g>
<mask id="mask-44">
<use xlink:href="#compositing-group-66"/>
</mask>
<mask id="mask-45">
<use xlink:href="#compositing-group-66" filter="url(#filter-remove-color-and-invert-alpha)"/>
</mask>
<g id="compositing-group-67" mask="url(#mask-44)">
<g transform="translate(76.5342, 30.33022)">
<rect x="-76.5342" y="-30.33022" width="918.4104" height="363.96264" fill="rgb(0%, 0%, 0%)" fill-opacity="1"/>
</g>
</g>
<g id="compositing-group-68" mask="url(#mask-45)">
<g transform="translate(76.5342, 30.33022)">
<g filter="url(#filter-21)" transform="translate(-76.5342, -30.33022)">
<rect x="0" y="0" width="918.4104" height="363.96264" fill="rgb(0%, 0%, 0%)" fill-opacity="1"/>
</g>
</g>
</g>
<g id="compositing-group-69" transform="translate(76.5342, 30.33022)">
<rect x="-76.5342" y="-30.33022" width="918.4104" height="363.96264" fill="rgb(0%, 0%, 0%)" fill-opacity="0"/>
<path fill="none" stroke-width="2.26" stroke-linecap="round" stroke-linejoin="round" stroke="rgb(100%, 100%, 100%)" stroke-opacity="1" stroke-miterlimit="10" d="M 350.824219 261.984375 L 351.089844 262.492188 L 352.230469 262.492188 L 352.230469 263.0625 L 352.800781 263.0625 L 353.371094 263.628906 L 353.941406 264.199219 L 353.941406 265.339844 L 354.519531 265.339844 L 354.519531 265.921875 L 355.089844 266.492188 L 355.089844 268.199219 L 355.660156 268.199219 L 355.660156 268.769531 L 356.230469 268.769531 L 356.230469 269.914062 "/>
</g>
<mask id="mask-46">
<use xlink:href="#compositing-group-69"/>
</mask>
<mask id="mask-47">
<use xlink:href="#compositing-group-69" filter="url(#filter-remove-color-and-invert-alpha)"/>
</mask>
<g id="compositing-group-70" mask="url(#mask-46)">
<g transform="translate(76.5342, 30.33022)">
<rect x="-76.5342" y="-30.33022" width="918.4104" height="363.96264" fill="rgb(0%, 0%, 0%)" fill-opacity="1"/>
</g>
</g>
<g id="compositing-group-71" mask="url(#mask-47)">
<g transform="translate(76.5342, 30.33022)">
<g filter="url(#filter-22)" transform="translate(-76.5342, -30.33022)">
<rect x="0" y="0" width="918.4104" height="363.96264" fill="rgb(0%, 0%, 0%)" fill-opacity="1"/>
</g>
</g>
</g>
<g id="compositing-group-72" transform="translate(76.5342, 30.33022)">
<rect x="-76.5342" y="-30.33022" width="918.4104" height="363.96264" fill="rgb(0%, 0%, 0%)" fill-opacity="0"/>
<path fill="none" stroke-width="2.26" stroke-linecap="round" stroke-linejoin="round" stroke="rgb(100%, 100%, 100%)" stroke-opacity="1" stroke-miterlimit="10" d="M 356.515625 262.503906 L 356.515625 262.859375 L 356.042969 262.859375 L 356.042969 264 L 355.472656 264 L 355.472656 265.136719 L 354.902344 265.136719 L 354.902344 266.277344 L 354.3125 266.277344 L 354.3125 267.4375 L 353.730469 267.4375 L 353.730469 268.589844 L 353.164062 268.589844 L 353.164062 270.324219 L 352.59375 270.324219 L 352.59375 270.894531 "/>
</g>
<mask id="mask-48">
<use xlink:href="#compositing-group-72"/>
</mask>
<mask id="mask-49">
<use xlink:href="#compositing-group-72" filter="url(#filter-remove-color-and-invert-alpha)"/>
</mask>
<g id="compositing-group-73" mask="url(#mask-48)">
<g transform="translate(76.5342, 30.33022)">
<rect x="-76.5342" y="-30.33022" width="918.4104" height="363.96264" fill="rgb(0%, 0%, 0%)" fill-opacity="1"/>
</g>
</g>
<g id="compositing-group-74" mask="url(#mask-49)">
<g transform="translate(76.5342, 30.33022)">
<g filter="url(#filter-23)" transform="translate(-76.5342, -30.33022)">
<rect x="0" y="0" width="918.4104" height="363.96264" fill="rgb(0%, 0%, 0%)" fill-opacity="1"/>
</g>
</g>
</g>
<g id="compositing-group-75" transform="translate(76.5342, 30.33022)">
<rect x="-76.5342" y="-30.33022" width="918.4104" height="363.96264" fill="rgb(0%, 0%, 0%)" fill-opacity="0"/>
<path fill="none" stroke-width="2.26" stroke-linecap="round" stroke-linejoin="round" stroke="rgb(100%, 100%, 100%)" stroke-opacity="1" stroke-miterlimit="10" d="M 355.726562 267.554688 L 355.988281 268.0625 L 357.128906 269.203125 L 357.128906 269.761719 L 357.707031 269.761719 L 357.707031 270.320312 L 358.265625 270.320312 L 358.265625 270.851562 "/>
</g>
<mask id="mask-50">
<use xlink:href="#compositing-group-75"/>
</mask>
<mask id="mask-51">
<use xlink:href="#compositing-group-75" filter="url(#filter-remove-color-and-invert-alpha)"/>
</mask>
<g id="compositing-group-76" mask="url(#mask-50)">
<g transform="translate(76.5342, 30.33022)">
<rect x="-76.5342" y="-30.33022" width="918.4104" height="363.96264" fill="rgb(0%, 0%, 0%)" fill-opacity="1"/>
</g>
</g>
<g id="compositing-group-77" mask="url(#mask-51)">
<g transform="translate(76.5342, 30.33022)">
<g filter="url(#filter-24)" transform="translate(-76.5342, -30.33022)">
<rect x="0" y="0" width="918.4104" height="363.96264" fill="rgb(0%, 0%, 0%)" fill-opacity="1"/>
</g>
</g>
</g>
<g id="compositing-group-78" transform="translate(76.5342, 30.33022)">
<rect x="-76.5342" y="-30.33022" width="918.4104" height="363.96264" fill="rgb(0%, 0%, 0%)" fill-opacity="0"/>
<path fill="none" stroke-width="2.26" stroke-linecap="round" stroke-linejoin="round" stroke="rgb(100%, 100%, 100%)" stroke-opacity="1" stroke-miterlimit="10" d="M 305.167969 158.714844 L 305.773438 158.714844 L 305.773438 159.246094 L 306.34375 159.246094 L 306.886719 159.792969 L 307.261719 159.792969 L 307.261719 160.820312 L 307.792969 160.820312 L 307.792969 161.367188 L 308.484375 161.367188 L 308.785156 161.628906 L 308.785156 161.988281 L 309.3125 161.988281 L 309.3125 163.128906 L 309.882812 163.128906 L 309.882812 163.695312 L 310.417969 163.695312 L 310.417969 164.78125 "/>
</g>
<mask id="mask-52">
<use xlink:href="#compositing-group-78"/>
</mask>
<mask id="mask-53">
<use xlink:href="#compositing-group-78" filter="url(#filter-remove-color-and-invert-alpha)"/>
</mask>
<g id="compositing-group-79" mask="url(#mask-52)">
<g transform="translate(76.5342, 30.33022)">
<rect x="-76.5342" y="-30.33022" width="918.4104" height="363.96264" fill="rgb(0%, 0%, 0%)" fill-opacity="1"/>
</g>
</g>
<g id="compositing-group-80" mask="url(#mask-53)">
<g transform="translate(76.5342, 30.33022)">
<g filter="url(#filter-25)" transform="translate(-76.5342, -30.33022)">
<rect x="0" y="0" width="918.4104" height="363.96264" fill="rgb(0%, 0%, 0%)" fill-opacity="1"/>
</g>
</g>
</g>
<g id="compositing-group-81" transform="translate(76.5342, 30.33022)">
<rect x="-76.5342" y="-30.33022" width="918.4104" height="363.96264" fill="rgb(0%, 0%, 0%)" fill-opacity="0"/>
<path fill="none" stroke-width="2.26" stroke-linecap="round" stroke-linejoin="round" stroke="rgb(100%, 100%, 100%)" stroke-opacity="1" stroke-miterlimit="10" d="M 313.734375 159.8125 L 313.734375 161.164062 L 313.210938 161.164062 L 313.210938 162.707031 L 312.671875 162.707031 L 312.671875 163.847656 L 312.101562 163.847656 L 312.101562 164.972656 L 311.546875 164.972656 L 311.546875 166.191406 L 310.976562 166.191406 L 310.976562 167.367188 L 310.40625 167.367188 L 310.40625 169.003906 L 309.871094 169.003906 "/>
</g>
<mask id="mask-54">
<use xlink:href="#compositing-group-81"/>
</mask>
<mask id="mask-55">
<use xlink:href="#compositing-group-81" filter="url(#filter-remove-color-and-invert-alpha)"/>
</mask>
<g id="compositing-group-82" mask="url(#mask-54)">
<g transform="translate(76.5342, 30.33022)">
<rect x="-76.5342" y="-30.33022" width="918.4104" height="363.96264" fill="rgb(0%, 0%, 0%)" fill-opacity="1"/>
</g>
</g>
<g id="compositing-group-83" mask="url(#mask-55)">
<g transform="translate(76.5342, 30.33022)">
<g filter="url(#filter-26)" transform="translate(-76.5342, -30.33022)">
<rect x="0" y="0" width="918.4104" height="363.96264" fill="rgb(0%, 0%, 0%)" fill-opacity="1"/>
</g>
</g>
</g>
<g id="compositing-group-84" transform="translate(76.5342, 30.33022)">
<rect x="-76.5342" y="-30.33022" width="918.4104" height="363.96264" fill="rgb(0%, 0%, 0%)" fill-opacity="0"/>
<path fill="none" stroke-width="2.26" stroke-linecap="round" stroke-linejoin="round" stroke="rgb(100%, 100%, 100%)" stroke-opacity="1" stroke-miterlimit="10" d="M 257.765625 259.96875 L 257.765625 269.304688 "/>
</g>
<mask id="mask-56">
<use xlink:href="#compositing-group-84"/>
</mask>
<mask id="mask-57">
<use xlink:href="#compositing-group-84" filter="url(#filter-remove-color-and-invert-alpha)"/>
</mask>
<g id="compositing-group-85" mask="url(#mask-56)">
<g transform="translate(76.5342, 30.33022)">
<rect x="-76.5342" y="-30.33022" width="918.4104" height="363.96264" fill="rgb(0%, 0%, 0%)" fill-opacity="1"/>
</g>
</g>
<g id="compositing-group-86" mask="url(#mask-57)">
<g transform="translate(76.5342, 30.33022)">
<g filter="url(#filter-27)" transform="translate(-76.5342, -30.33022)">
<rect x="0" y="0" width="918.4104" height="363.96264" fill="rgb(0%, 0%, 0%)" fill-opacity="1"/>
</g>
</g>
</g>
<g id="compositing-group-87" transform="translate(76.5342, 30.33022)">
<rect x="-76.5342" y="-30.33022" width="918.4104" height="363.96264" fill="rgb(0%, 0%, 0%)" fill-opacity="0"/>
<path fill="none" stroke-width="2.26" stroke-linecap="round" stroke-linejoin="round" stroke="rgb(100%, 100%, 100%)" stroke-opacity="1" stroke-miterlimit="10" d="M 254.972656 259.65625 L 255.71875 259.65625 L 255.71875 259.101562 L 260.914062 259.101562 "/>
</g>
<mask id="mask-58">
<use xlink:href="#compositing-group-87"/>
</mask>
<mask id="mask-59">
<use xlink:href="#compositing-group-87" filter="url(#filter-remove-color-and-invert-alpha)"/>
</mask>
<g id="compositing-group-88" mask="url(#mask-58)">
<g transform="translate(76.5342, 30.33022)">
<rect x="-76.5342" y="-30.33022" width="918.4104" height="363.96264" fill="rgb(0%, 0%, 0%)" fill-opacity="1"/>
</g>
</g>
<g id="compositing-group-89" mask="url(#mask-59)">
<g transform="translate(76.5342, 30.33022)">
<g filter="url(#filter-28)" transform="translate(-76.5342, -30.33022)">
<rect x="0" y="0" width="918.4104" height="363.96264" fill="rgb(0%, 0%, 0%)" fill-opacity="1"/>
</g>
</g>
</g>
<g id="compositing-group-90" transform="translate(76.5342, 30.33022)">
<rect x="-76.5342" y="-30.33022" width="918.4104" height="363.96264" fill="rgb(0%, 0%, 0%)" fill-opacity="0"/>
<path fill="none" stroke-width="2.26" stroke-linecap="round" stroke-linejoin="round" stroke="rgb(100%, 100%, 100%)" stroke-opacity="1" stroke-miterlimit="10" d="M 364.859375 91.171875 L 334.734375 121.695312 L 349.988281 117.5 L 334.734375 121.695312 L 338.730469 106.386719 L 334.734375 121.695312 "/>
</g>
<mask id="mask-60">
<use xlink:href="#compositing-group-90"/>
</mask>
<mask id="mask-61">
<use xlink:href="#compositing-group-90" filter="url(#filter-remove-color-and-invert-alpha)"/>
</mask>
<g id="compositing-group-91" mask="url(#mask-60)">
<g transform="translate(76.5342, 30.33022)">
<rect x="-76.5342" y="-30.33022" width="918.4104" height="363.96264" fill="rgb(0%, 75.294118%, 100%)" fill-opacity="1"/>
</g>
</g>
<g id="compositing-group-92" mask="url(#mask-61)">
<g transform="translate(76.5342, 30.33022)">
<g filter="url(#filter-29)" transform="translate(-76.5342, -30.33022)">
<rect x="0" y="0" width="918.4104" height="363.96264" fill="rgb(0%, 0%, 0%)" fill-opacity="1"/>
</g>
</g>
</g>
<g id="compositing-group-93" transform="translate(76.5342, 30.33022)">
<rect x="-76.5342" y="-30.33022" width="918.4104" height="363.96264" fill="rgb(0%, 0%, 0%)" fill-opacity="0"/>
<path fill="none" stroke-width="2.26" stroke-linecap="round" stroke-linejoin="round" stroke="rgb(100%, 100%, 100%)" stroke-opacity="1" stroke-miterlimit="10" d="M 365.253906 92.199219 L 394.738281 121.492188 L 390.59375 106.222656 L 394.738281 121.492188 L 379.441406 117.445312 L 394.738281 121.492188 "/>
</g>
<mask id="mask-62">
<use xlink:href="#compositing-group-93"/>
</mask>
<mask id="mask-63">
<use xlink:href="#compositing-group-93" filter="url(#filter-remove-color-and-invert-alpha)"/>
</mask>
<g id="compositing-group-94" mask="url(#mask-62)">
<g transform="translate(76.5342, 30.33022)">
<rect x="-76.5342" y="-30.33022" width="918.4104" height="363.96264" fill="rgb(0%, 75.294118%, 100%)" fill-opacity="1"/>
</g>
</g>
<g id="compositing-group-95" mask="url(#mask-63)">
<g transform="translate(76.5342, 30.33022)">
<g filter="url(#filter-30)" transform="translate(-76.5342, -30.33022)">
<rect x="0" y="0" width="918.4104" height="363.96264" fill="rgb(0%, 0%, 0%)" fill-opacity="1"/>
</g>
</g>
</g>
<g id="compositing-group-96" transform="translate(76.5342, 30.33022)">
<rect x="-76.5342" y="-30.33022" width="918.4104" height="363.96264" fill="rgb(0%, 0%, 0%)" fill-opacity="0"/>
<path fill="none" stroke-width="2.26" stroke-linecap="round" stroke-linejoin="round" stroke="rgb(100%, 100%, 100%)" stroke-opacity="1" stroke-miterlimit="10" d="M 308.792969 184.746094 L 280.339844 219.804688 L 295.117188 214.152344 L 280.339844 219.804688 L 282.832031 204.179688 L 280.339844 219.804688 "/>
</g>
<mask id="mask-64">
<use xlink:href="#compositing-group-96"/>
</mask>
<mask id="mask-65">
<use xlink:href="#compositing-group-96" filter="url(#filter-remove-color-and-invert-alpha)"/>
</mask>
<g id="compositing-group-97" mask="url(#mask-64)">
<g transform="translate(76.5342, 30.33022)">
<rect x="-76.5342" y="-30.33022" width="918.4104" height="363.96264" fill="rgb(0%, 75.294118%, 100%)" fill-opacity="1"/>
</g>
</g>
<g id="compositing-group-98" mask="url(#mask-65)">
<g transform="translate(76.5342, 30.33022)">
<g filter="url(#filter-31)" transform="translate(-76.5342, -30.33022)">
<rect x="0" y="0" width="918.4104" height="363.96264" fill="rgb(0%, 0%, 0%)" fill-opacity="1"/>
</g>
</g>
</g>
<g id="compositing-group-99" transform="translate(76.5342, 30.33022)">
<rect x="-76.5342" y="-30.33022" width="918.4104" height="363.96264" fill="rgb(0%, 0%, 0%)" fill-opacity="0"/>
<path fill="none" stroke-width="2.26" stroke-linecap="round" stroke-linejoin="round" stroke="rgb(100%, 100%, 100%)" stroke-opacity="1" stroke-miterlimit="10" d="M 309.265625 185.417969 L 332.230469 220.328125 L 331.308594 204.535156 L 332.230469 220.328125 L 318.089844 213.230469 L 332.230469 220.328125 "/>
</g>
<mask id="mask-66">
<use xlink:href="#compositing-group-99"/>
</mask>
<mask id="mask-67">
<use xlink:href="#compositing-group-99" filter="url(#filter-remove-color-and-invert-alpha)"/>
</mask>
<g id="compositing-group-100" mask="url(#mask-66)">
<g transform="translate(76.5342, 30.33022)">
<rect x="-76.5342" y="-30.33022" width="918.4104" height="363.96264" fill="rgb(0%, 75.294118%, 100%)" fill-opacity="1"/>
</g>
</g>
<g id="compositing-group-101" mask="url(#mask-67)">
<g transform="translate(76.5342, 30.33022)">
<g filter="url(#filter-32)" transform="translate(-76.5342, -30.33022)">
<rect x="0" y="0" width="918.4104" height="363.96264" fill="rgb(0%, 0%, 0%)" fill-opacity="1"/>
</g>
</g>
</g>
</defs>
<g filter="url(#filter-33)" transform="translate(-76.5342, -30.33022)">
<rect x="0" y="0" width="918.4104" height="363.96264" fill="rgb(0%, 0%, 0%)" fill-opacity="1"/>
</g>
</svg>
